<svg width="281" height="38" viewBox="0 0 281 38" fill="none" xmlns="http://www.w3.org/2000/svg">
<g clip-path="url(#clip0)">
<path d="M106.731 0.806702H106.533V36.7585H106.731V0.806702Z" fill="white" stroke="white" stroke-width="0.619401" stroke-miterlimit="10"/>
<path d="M245.29 16.3596C245.323 16.3924 245.389 16.3924 245.454 16.3596L245.979 15.8685C246.012 15.8357 246.012 15.7703 245.979 15.7375L245.454 15.2136C245.421 15.1809 245.356 15.1809 245.29 15.2136L244.765 15.7375C244.733 15.7703 244.733 15.8357 244.765 15.8685L245.29 16.3596Z" fill="white"/>
<path d="M223.739 15.6392C223.772 15.6719 223.837 15.6719 223.903 15.6392L224.428 15.148C224.461 15.1153 224.461 15.0498 224.428 15.0171L223.903 14.4932C223.87 14.4604 223.805 14.4604 223.739 14.4932L223.214 15.0171C223.181 15.0498 223.181 15.1153 223.214 15.148L223.739 15.6392Z" fill="white"/>
<path d="M226.134 16.6216L225.872 17.2437C225.773 17.4074 225.74 17.4401 225.839 17.5711C226.429 18.5207 226.659 19.6339 226.528 20.7472C226.101 21.8604 224.559 22.3188 223.543 22.2861C221.804 22.2206 220.787 20.649 221.279 18.8808C221.312 18.8154 221.017 18.8154 221.017 18.8808C220.033 21.2383 221.509 23.1047 223.444 23.1374C225.281 23.1702 226.823 22.3188 227.118 20.3543C227.282 19.0773 227.02 17.7676 226.331 16.6871C226.232 16.5233 226.167 16.5233 226.134 16.6216Z" fill="white"/>
<path d="M249.325 12.6269C249.03 12.9543 248.997 12.9871 248.866 13.1835C248.768 13.249 248.702 13.38 248.735 13.5109L248.8 19.4702C248.407 19.8631 247.882 20.0595 247.324 20.0595H246.767C246.34 20.0923 245.881 19.9613 245.553 19.6994C245.783 19.0445 245.848 18.3242 245.717 17.6365C245.717 17.5056 245.651 17.4728 245.553 17.5383L245.389 17.702C245.323 17.7675 245.291 17.833 245.323 17.9312C245.455 19.1755 245.061 20.0595 243.65 20.0595H233.252C232.661 20.0595 232.432 19.9613 232.104 19.2737L230.857 16.2613C230.792 16.1304 230.759 16.1631 230.693 16.2613L230.496 16.6543C230.431 16.7525 230.431 16.8835 230.463 16.9817L231.612 19.6339C231.218 20.0268 230.693 20.2232 230.135 20.1578C229.086 20.1578 228.823 19.8631 228.725 19.7321C228.627 19.6011 228.627 19.6339 228.627 19.7321C228.594 20.0268 228.659 20.2887 228.791 20.5507C229.086 20.9436 229.709 21.0091 230.267 21.0091C230.923 21.0418 231.546 20.7799 231.972 20.2887C232.268 20.7144 232.76 20.9436 233.285 20.9108H243.683C244.241 20.9436 244.798 20.7471 245.192 20.3542C245.586 20.8126 246.111 20.9108 246.799 20.9108H247.357C248.079 20.8781 249.489 20.6162 249.489 18.7498L249.555 12.7251C249.489 12.5614 249.424 12.5286 249.325 12.6269Z" fill="white"/>
<path d="M259.592 17.6366C259.821 17.3419 259.821 17.0145 259.46 16.9162C259.1 16.8507 258.772 16.7853 258.411 16.687C258.443 16.1959 259.296 15.8357 259.428 16.2941C259.46 16.2941 259.526 16.2941 259.559 16.2614C259.526 15.7375 259.296 15.5738 258.936 15.6065C258.345 15.672 257.787 16.8835 258.214 17.1454C258.411 17.2764 259.329 17.3091 259.296 17.4729C259.264 17.6693 258.148 17.833 257.82 17.7675C257.787 17.7675 257.82 17.8658 257.853 17.8658C258.214 18.095 259.198 18.1605 259.592 17.6366Z" fill="white"/>
<path d="M276.388 16.3596C276.421 16.3924 276.487 16.3924 276.552 16.3596L277.077 15.8685C277.11 15.8357 277.11 15.7703 277.077 15.7375L276.552 15.2136C276.52 15.1809 276.454 15.1809 276.388 15.2136L275.863 15.7375C275.831 15.7703 275.831 15.8357 275.863 15.8685L276.388 16.3596Z" fill="white"/>
<path d="M279.275 21.926C279.242 21.8932 279.177 21.8932 279.111 21.926L278.586 22.4499C278.553 22.4826 278.553 22.5481 278.586 22.5808L279.111 23.072C279.144 23.1047 279.209 23.1047 279.275 23.072L279.8 22.5808C279.833 22.5481 279.833 22.4826 279.8 22.4499L279.275 21.926Z" fill="white"/>
<path d="M279.963 16.6543C279.898 16.5233 279.832 16.5233 279.767 16.6216C279.57 17.0472 279.57 17.0472 279.471 17.2764C279.373 17.5056 279.373 17.4729 279.439 17.6039C279.767 18.1277 279.963 18.7499 279.931 19.4047C279.537 19.8304 279.012 20.0268 278.422 20.0268H277.864C277.438 20.0596 276.978 19.9286 276.65 19.6667C276.88 19.0118 276.945 18.2915 276.814 17.6039C276.814 17.4729 276.749 17.4401 276.65 17.5384L276.486 17.7021C276.421 17.7676 276.388 17.8331 276.421 17.9313C276.552 19.1755 276.158 20.0596 274.748 20.0596H263.988C263.693 20.0596 262.873 20.0596 262.873 18.8481L262.939 12.7252C262.939 12.6597 262.906 12.6269 262.873 12.6269C262.84 12.6269 262.807 12.6597 262.775 12.6924C262.643 12.8561 262.479 13.0198 262.348 13.1836C262.217 13.3473 262.217 13.3473 262.217 13.511V19.5357C261.79 19.9941 260.642 20.1905 258.609 20.2233C257.264 20.2233 256.214 19.9613 255.656 19.4375C255 18.8153 255.131 17.964 255.558 17.1782C255.591 17.1127 255.361 17.1127 255.295 17.1782C254.803 18.095 254.443 19.1755 255.164 20.0596C255.722 20.7144 256.837 21.1073 258.641 21.0746C260.61 21.0746 261.823 20.8454 262.446 20.1905C262.742 20.7799 263.398 20.9764 264.087 20.9764H274.78C275.338 21.0091 275.896 20.8127 276.289 20.4197C276.683 20.8781 277.208 20.9764 277.897 20.9764H278.454C279.176 20.9436 280.587 20.6817 280.587 18.8153C280.521 17.964 280.324 17.2764 279.963 16.6543Z" fill="white"/>
<path d="M151.506 16.6214C151.309 17.0471 151.309 17.0471 151.211 17.2763C151.112 17.5055 151.112 17.4728 151.178 17.6037C151.539 18.1276 151.703 18.7497 151.67 19.4046C151.342 19.8303 150.817 20.0595 150.292 20.0267C149.964 20.0267 149.669 19.9285 149.439 19.732C149.669 19.0117 149.735 18.2586 149.603 17.5055C149.603 17.3745 149.538 17.3418 149.439 17.4073L149.21 17.6365C149.144 17.6692 149.111 17.7675 149.144 17.8657C149.144 19.1427 148.816 20.0267 147.668 20.0267C147.34 20.0267 147.045 19.9285 146.782 19.7648C147.012 19.1754 147.078 18.5533 146.979 17.9312C146.946 17.8002 146.914 17.7675 146.815 17.8657L146.651 18.0294C146.586 18.0949 146.586 18.0949 146.586 18.2586C146.586 19.4046 145.995 20.0595 145.142 20.0595H134.547C133.924 20.0595 133.563 19.8957 133.366 19.6665C133.497 19.3719 133.563 19.0444 133.53 18.717C133.53 17.44 132.907 16.556 131.529 16.556C130.381 16.556 129.298 17.2763 128.281 18.9462L128.314 12.725C128.314 12.6268 128.249 12.5613 128.15 12.6596C127.855 13.0197 127.822 13.0197 127.691 13.2162C127.56 13.4126 127.56 13.3799 127.56 13.5436L127.625 19.7648C127.625 19.8957 127.625 20.0267 127.625 20.1249C126.969 20.0922 126.412 20.0267 126.018 19.9612C125.952 19.9612 125.952 20.2232 126.018 20.2232C126.576 20.5506 127.199 20.7798 127.855 20.878C128.905 21.0417 131.43 21.2055 132.579 20.5179C132.743 20.4524 132.874 20.3214 133.005 20.2232C133.399 20.6816 133.956 20.9108 134.547 20.9108H145.175C145.634 20.9108 146.094 20.7471 146.422 20.4196C146.782 20.7143 147.242 20.9108 147.701 20.9108C148.226 20.9435 148.751 20.7471 149.144 20.3869C149.505 20.7471 149.997 20.9108 150.489 20.9108C151.44 20.9108 152.392 20.2559 152.392 18.7497C152.359 18.0294 152.162 17.3418 151.801 16.7197C151.637 16.556 151.572 16.5232 151.506 16.6214ZM128.15 20.0922V20.0595C129.101 18.1604 130.381 17.3091 131.266 17.3091C132.152 17.3091 132.874 17.9639 132.808 19.3719C132.152 20.1577 129.987 20.1904 128.15 20.0922Z" fill="white"/>
<path d="M160.166 13.1181L160.068 12.6597C159.74 12.8234 159.346 12.8561 159.018 12.7251C158.789 12.6269 158.625 12.4632 158.657 12.3322C158.723 12.0703 159.051 11.9393 159.281 11.9393C159.51 11.9393 159.674 12.0048 159.707 12.1685C159.707 12.2013 159.806 12.2013 159.806 12.1685C159.871 11.6446 159.674 11.4482 159.313 11.4482C158.821 11.4482 158.395 11.8411 158.329 12.3322C158.297 12.6269 158.461 12.8889 158.723 13.0198C158.461 13.1181 158.264 13.38 158.231 13.6747C158.231 13.7402 158.329 13.7402 158.362 13.7074C158.69 13.38 158.789 13.38 159.346 13.3145C159.674 13.3473 159.937 13.249 160.166 13.1181Z" fill="white"/>
<path d="M163.085 17.3419C163.413 16.5888 163.544 15.7702 163.544 14.9189V12.6597C163.544 12.5614 163.479 12.496 163.38 12.5942C163.085 12.9216 163.052 12.9544 162.921 13.1508C162.79 13.3473 162.79 13.3145 162.79 13.4782V15.2136C162.79 15.7048 162.724 16.1632 162.626 16.6216C161.872 15.6393 160.756 14.9517 159.674 14.2641C159.575 14.1986 159.51 14.1986 159.411 14.2968C159.28 14.4605 159.182 14.6242 159.083 14.788C158.886 15.1481 159.313 15.2791 159.805 15.3118C160.855 15.7702 161.74 16.5233 162.364 17.4729C161.806 18.7171 160.756 19.6667 159.477 20.0596C159.346 20.0596 159.346 20.3215 159.28 20.7799C159.28 20.8454 159.313 20.9109 159.411 20.9109C160.625 20.8127 161.839 20.7799 163.052 20.8781C163.216 20.9436 163.413 20.8454 163.446 20.6817C163.676 20.1905 163.61 19.3065 163.577 18.9463C163.512 18.3569 163.348 17.8331 163.085 17.3419ZM160.527 19.9941C161.412 19.6012 162.2 18.9463 162.692 18.095C162.987 18.6844 163.118 19.3392 163.085 20.0268C162.331 19.9613 161.412 19.9613 160.527 19.9941Z" fill="white"/>
<path d="M166.497 12.6269C166.333 12.7906 166.202 12.9543 166.071 13.118C165.972 13.249 165.939 13.2818 165.939 13.4455V19.7321C165.939 20.256 165.939 20.8126 165.579 21.1073C165.546 21.1401 165.611 21.1401 165.677 21.1401C166.103 21.1401 166.595 20.6817 166.595 19.6011L166.661 12.6924C166.661 12.5614 166.563 12.5287 166.497 12.6269Z" fill="white"/>
<path d="M155.902 16.6216C154.491 16.6216 153.769 18.6844 154.327 19.8304C154.819 20.8781 155.967 20.8781 157.148 20.256C156.918 21.7622 156.098 22.679 153.966 22.6135C153.901 22.6135 153.901 22.7772 153.966 22.81C156.459 23.5958 157.476 22.7117 157.706 20.1905C157.837 18.6516 157.345 16.5888 155.902 16.6216ZM154.885 19.4702C154.425 18.6844 154.95 17.4401 155.869 17.4401C156.426 17.4401 157.05 18.1277 157.148 19.5029C156.295 19.9613 155.213 20.0923 154.885 19.4702Z" fill="white"/>
<path d="M176.042 15.6392C176.074 15.6719 176.14 15.6719 176.206 15.6392L176.731 15.148C176.763 15.1153 176.763 15.0498 176.731 15.0171L176.206 14.4932C176.173 14.4604 176.107 14.4604 176.042 14.4932L175.517 15.0171C175.484 15.0498 175.484 15.1153 175.517 15.148L176.042 15.6392Z" fill="white"/>
<path d="M177.486 15.6392C177.519 15.6719 177.584 15.6719 177.65 15.6392L178.175 15.148C178.208 15.1153 178.208 15.0498 178.175 15.0171L177.65 14.4932C177.617 14.4604 177.552 14.4604 177.486 14.4932L176.961 15.0171C176.928 15.0498 176.928 15.1153 176.961 15.148L177.486 15.6392Z" fill="white"/>
<path d="M199.234 16.6215C199.266 16.6543 199.332 16.6543 199.398 16.6215L199.922 16.1304C199.955 16.0976 199.955 16.0322 199.922 15.9994L199.398 15.4755C199.365 15.4428 199.299 15.4428 199.234 15.4755L198.709 15.9994C198.676 16.0322 198.676 16.0976 198.709 16.1304L199.234 16.6215Z" fill="white"/>
<path d="M199.957 15.3773C199.99 15.41 200.055 15.41 200.088 15.3773L200.58 14.9189C200.613 14.8861 200.613 14.8206 200.58 14.7879L200.088 14.3295C200.055 14.2968 199.99 14.2968 199.957 14.3295L199.465 14.7879C199.432 14.8206 199.432 14.8861 199.465 14.9189L199.957 15.3773Z" fill="white"/>
<path d="M200.12 16.1304L200.645 16.6215C200.678 16.6543 200.744 16.6543 200.809 16.6215L201.334 16.1304C201.367 16.0976 201.367 16.0322 201.334 15.9994L200.809 15.4755C200.776 15.4428 200.711 15.4428 200.645 15.4755L200.12 15.9994C200.088 16.0322 200.088 16.0976 200.12 16.1304Z" fill="white"/>
<path d="M209.961 12.6269C209.83 12.7906 209.666 12.9543 209.535 13.118C209.437 13.249 209.404 13.2818 209.404 13.4455V19.7321C209.404 20.256 209.404 20.8126 209.043 21.1073C209.01 21.1401 209.076 21.1401 209.141 21.1401C209.568 21.1401 210.06 20.6817 210.06 19.6011L210.125 12.6924C210.125 12.5614 210.06 12.5287 209.961 12.6269Z" fill="white"/>
<path d="M213.864 16.6216C212.454 16.6216 211.732 18.6844 212.29 19.8304C212.782 20.8781 213.93 20.8781 215.111 20.256C214.881 21.7622 214.061 22.679 211.929 22.6135C211.863 22.6135 211.863 22.7772 211.929 22.81C214.422 23.5958 215.439 22.7117 215.669 20.1905C215.8 18.6516 215.308 16.5888 213.864 16.6216ZM212.815 19.5029C212.356 18.7171 212.88 17.4729 213.799 17.4729C214.357 17.4729 214.98 18.1605 215.078 19.5357C214.225 19.9613 213.176 20.125 212.815 19.5029Z" fill="white"/>
<path d="M206.911 12.6269C206.615 12.9544 206.583 12.9871 206.451 13.1836C206.353 13.249 206.287 13.38 206.32 13.511L206.386 19.4702C205.992 19.8631 205.467 20.0596 204.91 20.0596H204.45C204.024 20.0923 203.598 19.9614 203.302 19.6994C203.499 19.0446 203.565 18.3242 203.401 17.6366C203.368 17.5056 203.335 17.4729 203.237 17.5384L203.073 17.7021C203.007 17.7676 202.974 17.8331 203.007 17.9313C203.138 19.4375 202.384 20.0596 201.629 20.0596C201.236 20.0596 200.842 19.9286 200.547 19.6667C200.711 19.11 200.776 18.5207 200.678 17.964C200.645 17.8331 200.612 17.8003 200.514 17.8658L200.35 18.0295C200.284 18.095 200.284 18.095 200.284 18.2587C200.284 19.4047 199.727 20.0268 198.874 20.0596C198.546 20.0596 198.218 19.9614 197.955 19.7976C198.185 19.2083 198.251 18.5861 198.152 17.964C198.119 17.8331 198.087 17.8003 197.988 17.8658L197.824 18.0295C197.759 18.095 197.759 18.095 197.759 18.2587C197.759 19.4047 197.168 20.0596 196.315 20.0596H184.637C184.047 20.0596 183.522 19.9614 183.194 19.2738L182.603 17.964C182.571 17.8658 182.505 17.8331 182.472 17.8658C182.439 17.8985 182.439 17.8985 182.439 17.9313L182.275 18.2587C182.21 18.3897 182.177 18.4552 182.21 18.5207L182.243 18.6189L182.833 19.8631C182.833 19.8959 182.833 19.9614 182.833 19.9941C182.571 21.8604 181.423 22.7118 179.487 22.6463C179.422 22.6463 179.422 22.81 179.487 22.8427C180.012 23.0392 180.537 23.1374 181.095 23.1374C182.275 23.0719 183.03 22.2534 183.325 20.4525C183.719 20.7472 184.211 20.8782 184.703 20.8782H196.446C196.906 20.8782 197.365 20.7144 197.693 20.387C198.054 20.7144 198.546 20.8782 199.038 20.8782C199.53 20.8782 200.022 20.6817 200.35 20.2888C200.744 20.649 201.268 20.8782 201.826 20.8782C202.351 20.8782 202.81 20.649 203.138 20.256C203.532 20.6817 204.057 20.8782 204.614 20.8782H205.074C205.795 20.8454 207.206 20.5835 207.206 18.7171L207.271 12.6924C207.075 12.5614 207.009 12.496 206.911 12.6269Z" fill="white"/>
<path d="M177.06 16.4578C175.649 16.4578 174.927 18.5206 175.485 19.6666C176.043 20.8127 177.191 20.7144 178.405 20.0596C178.437 20.3215 178.437 20.5835 178.405 20.8454C177.88 22.1879 176.207 22.81 174.895 22.7445C173.025 22.679 171.811 21.402 172.434 19.2082C172.467 19.11 172.205 19.11 172.172 19.2082C171.089 21.9587 172.762 23.4976 174.796 23.5631C177.125 23.6285 178.437 22.679 178.929 21.0746C179.159 20.0596 178.962 16.4578 177.06 16.4578ZM176.01 19.3392C175.551 18.5534 176.076 17.3092 176.994 17.3092C177.519 17.3092 178.175 17.9968 178.339 19.3392C177.486 19.7976 176.371 19.9941 176.01 19.3392Z" fill="white"/>
<path d="M132.087 35.5143C132.021 35.678 131.923 35.8417 131.792 36.0054C131.66 36.1364 131.529 36.2674 131.398 36.3656C131.267 36.4638 131.103 36.5293 130.971 36.5948C130.709 36.693 130.414 36.7258 130.119 36.7585C129.791 36.7913 129.495 36.7913 129.2 36.7913H125.789V36.693C125.953 36.6603 126.117 36.6276 126.248 36.5621C126.379 36.4966 126.51 36.4311 126.609 36.3329C126.641 36.3001 126.674 36.2346 126.674 36.1692C126.707 36.1037 126.707 36.0054 126.74 35.9072C126.773 35.809 126.773 35.7108 126.773 35.6125C126.773 35.5143 126.773 35.4161 126.773 35.3178C126.773 35.2196 126.773 35.1214 126.773 34.9577C126.773 34.794 126.773 34.6302 126.773 34.4665C126.773 34.3028 126.773 34.1063 126.773 33.9099V32.4365C126.773 32.3055 126.773 32.1418 126.773 32.0108C126.773 31.8798 126.773 31.7161 126.773 31.5197C126.773 31.3887 126.773 31.2905 126.773 31.1922C126.773 31.094 126.74 30.963 126.74 30.8648C126.74 30.7666 126.707 30.6683 126.674 30.5701C126.674 30.5046 126.641 30.4391 126.576 30.3737C126.477 30.2754 126.379 30.2099 126.281 30.1772C126.149 30.1444 126.018 30.1117 125.854 30.1117V30.0135H129.2C129.43 30.0135 129.692 30.0135 129.922 30.0462C130.151 30.079 130.381 30.1117 130.578 30.2099C130.906 30.3082 131.168 30.5046 131.398 30.7666C131.628 31.0285 131.726 31.3559 131.726 31.7161C131.726 32.109 131.595 32.4692 131.3 32.7311C131.004 32.9931 130.611 33.1895 130.217 33.255C130.447 33.2878 130.709 33.3533 130.906 33.4187C131.135 33.4842 131.332 33.6152 131.529 33.7462C131.693 33.8771 131.857 34.0736 131.956 34.2701C132.054 34.4665 132.12 34.6957 132.12 34.9577C132.185 35.0886 132.152 35.2851 132.087 35.5143ZM130.381 30.7993C130.217 30.5701 130.02 30.3737 129.758 30.2754C129.397 30.1444 129.003 30.079 128.61 30.079C128.478 30.079 128.347 30.079 128.249 30.1117C128.15 30.1117 128.085 30.1444 127.986 30.1444C127.986 30.1772 127.986 30.2099 127.954 30.2427C127.954 30.2754 127.954 30.3082 127.954 30.3737C127.954 30.4064 127.954 30.4719 127.954 30.5374C127.954 30.6029 127.954 30.7011 127.954 30.7993C127.954 31.0285 127.954 31.2577 127.954 31.5197C127.954 31.7816 127.954 32.0435 127.954 32.2727V33.1895H128.511C128.675 33.1895 128.774 33.1895 128.872 33.1895C129.364 33.1895 129.856 33.0258 130.217 32.6984C130.512 32.4365 130.676 32.0435 130.676 31.6179C130.676 31.3232 130.578 31.0285 130.414 30.7666L130.381 30.7993ZM130.939 34.4993C130.873 34.3355 130.775 34.1718 130.676 34.0409C130.578 33.9099 130.447 33.7789 130.283 33.6807C130.119 33.5825 129.955 33.517 129.791 33.4515C129.659 33.4187 129.495 33.386 129.364 33.3533C129.233 33.3533 129.036 33.3205 128.872 33.3205H127.921V34.4993C127.921 34.663 127.921 34.8267 127.921 34.9904C127.921 35.1541 127.921 35.2524 127.921 35.3833C127.921 35.6125 127.954 35.809 127.954 35.9727C127.954 36.1037 128.019 36.2346 128.085 36.3656C128.15 36.4311 128.249 36.4966 128.347 36.5293C128.511 36.5948 128.675 36.5948 128.872 36.5948C129.069 36.5948 129.299 36.5948 129.495 36.5621C129.725 36.5293 129.955 36.4638 130.151 36.3656C130.414 36.2346 130.643 36.0382 130.807 35.809C130.971 35.547 131.037 35.2851 131.037 34.9904C131.037 34.8594 131.004 34.663 130.939 34.4993ZM137.007 36.2019C136.942 36.3001 136.876 36.4311 136.81 36.4966C136.712 36.5948 136.614 36.6603 136.515 36.693C136.384 36.7258 136.253 36.7585 136.122 36.7585C135.892 36.7585 135.695 36.693 135.531 36.5621C135.334 36.3984 135.236 36.1692 135.269 35.9072H135.236C135.17 36.0054 135.105 36.1037 135.039 36.1692C134.941 36.2674 134.842 36.3656 134.711 36.4638C134.58 36.5621 134.449 36.6276 134.317 36.6603C134.153 36.7258 133.989 36.7258 133.825 36.7258C133.727 36.7258 133.596 36.7258 133.497 36.693C133.268 36.6276 133.071 36.4638 132.972 36.2674C132.907 36.1364 132.874 36.0054 132.874 35.8417C132.874 35.6453 132.972 35.4816 133.104 35.3178C133.268 35.1541 133.432 34.9904 133.661 34.8594C133.891 34.7285 134.088 34.6302 134.252 34.532C134.416 34.4338 134.58 34.3683 134.678 34.3028L135.006 34.1391L135.236 34.0081V33.0258C135.236 32.9931 135.203 32.9603 135.203 32.9276C135.17 32.8621 135.137 32.8294 135.072 32.7966C135.006 32.7311 134.908 32.6984 134.842 32.6657C134.711 32.6329 134.58 32.6002 134.449 32.6002C134.35 32.6002 134.252 32.6329 134.121 32.6657C134.022 32.6984 133.924 32.7311 133.858 32.7966C133.793 32.8294 133.727 32.8949 133.661 32.9603C133.629 32.9931 133.596 33.0586 133.596 33.0913V33.517C133.596 33.6152 133.53 33.7134 133.465 33.7462C133.366 33.8117 133.268 33.8444 133.136 33.8444C133.038 33.8444 132.94 33.8117 132.874 33.7462C132.808 33.6807 132.743 33.5825 132.743 33.4842C132.743 33.4187 132.776 33.3533 132.808 33.2878C132.841 33.2223 132.907 33.1568 132.972 33.1241C133.038 33.0586 133.104 33.0258 133.169 32.9931L133.366 32.8949C133.53 32.7966 133.727 32.6984 133.891 32.6329C134.055 32.5674 134.252 32.4692 134.383 32.4037C134.514 32.3382 134.678 32.3055 134.842 32.24C134.941 32.2073 135.072 32.1745 135.17 32.1745C135.334 32.1745 135.498 32.2073 135.662 32.3055C135.794 32.371 135.925 32.5019 135.99 32.6329C136.023 32.6984 136.056 32.7966 136.023 32.8621C136.023 32.9603 136.023 33.0913 136.023 33.1895C136.023 33.4187 136.023 33.6152 136.023 33.8117C136.023 34.0081 136.023 34.1718 136.023 34.3355C136.023 34.4993 136.023 34.663 136.023 34.8594C136.023 35.0559 136.023 35.2196 136.023 35.4488C135.99 35.6453 136.056 35.8417 136.187 36.0054C136.286 36.1037 136.417 36.1364 136.548 36.1364C136.679 36.1364 136.778 36.1037 136.876 36.0382C136.942 35.9727 137.007 35.9072 137.04 35.809H137.106C137.106 35.94 137.073 36.0382 137.007 36.1692V36.2019ZM135.269 34.1718C135.137 34.2701 134.973 34.3683 134.809 34.4338C134.645 34.532 134.449 34.6302 134.285 34.7285C134.121 34.8267 133.989 34.9577 133.858 35.0886C133.727 35.2196 133.661 35.3506 133.661 35.5143C133.661 35.678 133.727 35.8417 133.825 35.9727C133.957 36.1037 134.121 36.1692 134.285 36.1692C134.449 36.1692 134.58 36.1364 134.744 36.1037C134.875 36.0709 135.006 35.9727 135.105 35.8745C135.17 35.809 135.236 35.7108 135.236 35.6125L135.269 34.1718ZM140.222 36.7585V36.6603C140.353 36.6603 140.517 36.6276 140.648 36.5948C140.747 36.5948 140.812 36.4966 140.812 36.3984V34.0409C140.812 33.7462 140.747 33.4187 140.583 33.1568C140.419 32.9276 140.124 32.7966 139.861 32.8294C139.664 32.8294 139.467 32.8621 139.303 32.9603C139.139 33.0586 138.975 33.1895 138.811 33.3533V36.4311C138.811 36.4966 138.844 36.5293 138.877 36.5621C138.91 36.5948 138.943 36.6276 139.008 36.6276C139.074 36.6276 139.107 36.6603 139.172 36.6603C139.238 36.6603 139.303 36.6603 139.369 36.693V36.7913H137.466V36.693C137.598 36.693 137.729 36.6603 137.86 36.5948C137.959 36.5621 138.024 36.4638 138.024 36.3656V33.1241C138.024 33.0913 138.024 33.0586 138.024 32.9931C137.991 32.9603 137.959 32.9276 137.926 32.8949L137.729 32.7966C137.663 32.7639 137.565 32.7311 137.499 32.6984V32.6329L138.811 32.1745H138.877V33.2223H138.91C139.008 33.1241 139.074 32.9931 139.172 32.8949C139.271 32.7639 139.402 32.6657 139.533 32.5674C139.664 32.4692 139.828 32.371 139.992 32.3055C140.156 32.24 140.32 32.2073 140.517 32.2073C140.845 32.1745 141.173 32.3382 141.403 32.6002C141.6 32.8949 141.731 33.2878 141.698 33.6479V36.3984C141.698 36.4311 141.731 36.4966 141.764 36.5293C141.797 36.5621 141.862 36.5948 141.928 36.5948C141.993 36.6276 142.059 36.6276 142.125 36.6276L142.321 36.6603V36.7585H140.222ZM145.405 36.7585V36.6603C145.503 36.6603 145.634 36.6603 145.733 36.6276C145.799 36.6276 145.864 36.5621 145.864 36.4638C145.831 36.3656 145.799 36.2674 145.733 36.2019C145.634 36.0709 145.536 35.9072 145.405 35.7435C145.274 35.5798 145.142 35.3833 145.011 35.2196C144.88 35.0559 144.749 34.8922 144.65 34.7612C144.552 34.6302 144.454 34.5647 144.355 34.5647H144.257C144.224 34.5647 144.191 34.5647 144.191 34.5975V36.4311C144.191 36.4638 144.191 36.5293 144.224 36.5621C144.257 36.5948 144.322 36.6276 144.355 36.6276C144.421 36.6603 144.486 36.6603 144.519 36.6603L144.716 36.693V36.7913H142.748V36.693C142.879 36.693 143.01 36.6603 143.174 36.6276C143.273 36.5948 143.371 36.4966 143.371 36.3984V31.0285C143.371 30.9958 143.371 30.963 143.371 30.8975C143.371 30.8648 143.338 30.8321 143.305 30.7993C143.24 30.7666 143.174 30.7011 143.109 30.6683L142.846 30.5374V30.4719L144.158 29.8825H144.257V34.3683C144.454 34.2046 144.65 34.0409 144.88 33.8444C145.11 33.6479 145.306 33.4842 145.503 33.2878C145.7 33.0913 145.864 32.9603 145.995 32.8294C146.127 32.6984 146.192 32.6002 146.192 32.5674C146.192 32.5347 146.159 32.4692 146.127 32.4692C146.061 32.4365 145.995 32.4037 145.93 32.4037C145.831 32.371 145.766 32.371 145.667 32.371C145.569 32.371 145.503 32.3382 145.405 32.3382V32.24H147.832V32.3382H147.635C147.504 32.3382 147.373 32.371 147.275 32.4037C147.111 32.4365 146.979 32.5019 146.815 32.5347C146.651 32.6002 146.487 32.6984 146.356 32.7966C146.159 32.9603 145.93 33.1241 145.733 33.3205L145.142 33.8117C145.438 34.2373 145.7 34.6302 145.963 34.9904C146.225 35.3506 146.455 35.6453 146.651 35.9072C146.815 36.1364 147.012 36.3329 147.242 36.4966C147.34 36.5293 147.406 36.5293 147.504 36.5293C147.635 36.5293 147.734 36.5621 147.865 36.5621V36.6603L145.405 36.7585ZM154.459 35.3506C154.327 35.6125 154.163 35.8745 153.967 36.1037C153.54 36.5293 152.95 36.7913 152.326 36.7913C152.064 36.7913 151.769 36.7585 151.539 36.6603C151.244 36.5621 151.014 36.4311 150.785 36.2346C150.555 36.0382 150.358 35.7762 150.194 35.5143C150.03 35.1869 149.965 34.8267 149.965 34.4665C149.965 34.1718 150.03 33.8771 150.129 33.6152C150.227 33.3533 150.424 33.0913 150.621 32.8949C150.85 32.6657 151.08 32.5019 151.375 32.4037C151.703 32.2727 152.031 32.2073 152.359 32.2073C152.622 32.2073 152.917 32.2727 153.146 32.3382C153.409 32.4365 153.671 32.5674 153.868 32.7639C154.098 32.9603 154.295 33.1895 154.426 33.4515C154.59 33.7462 154.655 34.1063 154.655 34.4338C154.655 34.7612 154.59 35.0559 154.459 35.3506ZM153.671 33.7462C153.638 33.517 153.54 33.2878 153.442 33.0586C153.343 32.8621 153.179 32.6657 152.982 32.5347C152.786 32.4037 152.556 32.3382 152.294 32.3382C152.097 32.3382 151.867 32.4037 151.703 32.5347C151.539 32.6657 151.375 32.8294 151.277 33.0258C151.145 33.255 151.047 33.4842 151.014 33.7134C150.949 33.9754 150.916 34.2373 150.916 34.4993C150.916 34.7612 150.949 35.0559 150.981 35.3178C151.014 35.547 151.113 35.7762 151.244 36.0054C151.342 36.2019 151.506 36.3656 151.703 36.4638C151.9 36.5948 152.13 36.6276 152.359 36.6276C152.589 36.6276 152.818 36.5621 153.015 36.3984C153.179 36.2346 153.343 36.0709 153.442 35.8417C153.54 35.6125 153.638 35.3833 153.671 35.1214C153.704 34.8922 153.737 34.6302 153.737 34.401C153.737 34.2046 153.704 33.9754 153.671 33.7462ZM158.723 30.7011C158.657 30.7993 158.526 30.8321 158.428 30.8321C158.329 30.8321 158.198 30.7993 158.133 30.7338C158.034 30.6683 157.968 30.6029 157.903 30.5374C157.837 30.4719 157.772 30.3737 157.706 30.3082C157.64 30.2427 157.575 30.1772 157.476 30.1444C157.411 30.1444 157.378 30.1444 157.312 30.1772C157.247 30.2099 157.148 30.2427 157.083 30.3082C156.984 30.3737 156.919 30.4719 156.886 30.5701C156.82 30.7011 156.788 30.8648 156.788 31.0285C156.788 31.2905 156.755 31.4869 156.755 31.6834C156.755 31.8798 156.755 32.0763 156.755 32.3055H157.936L157.804 32.7311H156.755V36.3984C156.755 36.4638 156.788 36.4966 156.853 36.5293C156.919 36.5621 156.984 36.5948 157.05 36.5948C157.148 36.6276 157.214 36.6276 157.312 36.6276L157.608 36.6603V36.7585H155.082V36.6603C155.147 36.6603 155.246 36.6276 155.344 36.6276L155.607 36.5621C155.672 36.5293 155.771 36.5293 155.836 36.4638C155.902 36.4311 155.935 36.3984 155.935 36.3329V32.7311H155.213L155.311 32.3055H155.935C155.935 32.0435 155.935 31.7816 155.968 31.5197C155.968 31.3232 156.033 31.1267 156.099 30.9303C156.164 30.7666 156.263 30.6356 156.394 30.5374C156.525 30.4064 156.689 30.3082 156.853 30.2099C157.017 30.1117 157.214 30.0462 157.411 29.9807C157.608 29.9152 157.837 29.9152 158.034 29.9152C158.133 29.9152 158.231 29.9152 158.329 29.948C158.428 29.9807 158.493 29.9807 158.592 30.0462C158.657 30.079 158.723 30.1444 158.789 30.1772C158.854 30.2427 158.854 30.3082 158.854 30.4064C158.854 30.5374 158.821 30.6356 158.723 30.7011ZM167.252 36.7585H160.888V36.6603C161.052 36.6276 161.216 36.5948 161.38 36.5293C161.511 36.4966 161.642 36.3984 161.774 36.3001C161.806 36.2674 161.839 36.2019 161.872 36.1364C161.905 36.0709 161.905 35.9727 161.938 35.8745C161.938 35.7762 161.97 35.678 161.97 35.5798C161.97 35.4816 161.97 35.3833 161.97 35.2851C161.97 35.1869 161.97 35.0886 161.97 34.9249C161.97 34.7612 161.97 34.5975 161.97 34.4338C161.97 34.2701 161.97 34.0736 161.97 33.8771V31.1922C161.97 31.0613 161.97 30.963 161.97 30.8648C161.97 30.7666 161.938 30.7011 161.938 30.6029C161.938 30.5374 161.905 30.4719 161.839 30.4391C161.741 30.3409 161.61 30.2427 161.478 30.1772C161.314 30.1117 161.15 30.079 160.986 30.0462V29.948H164.135V30.0462C164.037 30.0462 163.939 30.079 163.84 30.1117C163.742 30.1444 163.611 30.1772 163.512 30.2427C163.414 30.3082 163.315 30.3737 163.25 30.4719C163.151 30.6029 163.119 30.7338 163.119 30.8975C163.119 31.1267 163.119 31.3232 163.119 31.4869C163.119 31.6506 163.119 31.8471 163.119 32.0108C163.119 32.1745 163.119 32.371 163.119 32.5674V34.2701C163.119 34.4338 163.119 34.5975 163.119 34.7612C163.119 34.9249 163.119 35.1214 163.119 35.3506C163.119 35.5798 163.119 35.7435 163.151 35.94C163.151 36.0709 163.184 36.2346 163.25 36.3329C163.283 36.3656 163.348 36.3984 163.414 36.4311C163.512 36.4638 163.611 36.4966 163.709 36.4966C163.807 36.5293 163.939 36.5293 164.07 36.5621C164.201 36.5621 164.332 36.5948 164.464 36.5948H164.726C164.824 36.5948 164.956 36.5948 165.12 36.5621C165.284 36.5293 165.415 36.5293 165.546 36.5293C165.677 36.5293 165.808 36.4966 165.94 36.4638C166.169 36.3984 166.399 36.3001 166.596 36.2019C166.76 36.1037 166.924 35.9727 167.055 35.809C167.186 35.678 167.285 35.5143 167.383 35.3178C167.481 35.1541 167.547 34.9577 167.645 34.794L167.744 34.8267L167.252 36.7585ZM172.5 35.3506C172.369 35.6125 172.205 35.8745 172.008 36.1037C171.811 36.3329 171.549 36.4966 171.287 36.5948C170.991 36.7258 170.696 36.7585 170.401 36.7585C170.138 36.7585 169.843 36.7258 169.581 36.6276C169.286 36.5293 169.056 36.3984 168.826 36.2019C168.564 36.0054 168.367 35.7435 168.203 35.4488C168.039 35.1214 167.973 34.7612 167.973 34.401C167.973 34.1063 168.039 33.8117 168.137 33.5497C168.236 33.2878 168.433 33.0258 168.63 32.8294C168.859 32.6002 169.089 32.4365 169.384 32.3382C169.942 32.109 170.598 32.0763 171.155 32.3055C171.418 32.4037 171.68 32.5347 171.877 32.7311C172.107 32.9276 172.303 33.1568 172.435 33.4187C172.599 33.7134 172.664 34.0736 172.664 34.401C172.664 34.7285 172.599 35.0232 172.468 35.3178L172.5 35.3506ZM171.68 33.7462C171.647 33.517 171.549 33.2878 171.451 33.0586C171.352 32.8621 171.188 32.6984 170.991 32.5347C170.795 32.4037 170.565 32.3382 170.302 32.3382C170.106 32.3382 169.876 32.4037 169.712 32.5347C169.548 32.6657 169.384 32.8294 169.286 33.0258C169.154 33.255 169.056 33.4842 169.023 33.7134C168.958 33.9754 168.925 34.2373 168.925 34.4993C168.925 34.7612 168.958 35.0559 168.99 35.3178C169.023 35.547 169.122 35.7762 169.253 36.0054C169.351 36.2019 169.515 36.3656 169.712 36.4638C169.909 36.5948 170.138 36.6276 170.368 36.6276C170.598 36.6276 170.827 36.5621 171.024 36.3984C171.188 36.2346 171.352 36.0709 171.451 35.8417C171.549 35.6125 171.647 35.3833 171.68 35.1214C171.713 34.8922 171.746 34.6302 171.746 34.401C171.746 34.2046 171.713 33.9754 171.68 33.7462ZM176.141 36.7585V36.6603C176.273 36.6603 176.437 36.6276 176.568 36.5948C176.666 36.5948 176.732 36.4966 176.732 36.3984V34.0409C176.732 33.7462 176.666 33.4187 176.502 33.1568C176.338 32.9276 176.043 32.7966 175.781 32.8294C175.584 32.8294 175.387 32.8621 175.223 32.9603C175.059 33.0586 174.895 33.2223 174.731 33.3533V36.4311C174.731 36.4966 174.764 36.5293 174.797 36.5621C174.829 36.5948 174.862 36.6276 174.928 36.6276C174.993 36.6276 175.026 36.6603 175.092 36.6603C175.157 36.6603 175.223 36.6603 175.289 36.693V36.7913H173.386V36.693C173.517 36.693 173.648 36.6603 173.78 36.5948C173.878 36.5621 173.944 36.4638 173.944 36.3656V33.1241C173.944 33.0913 173.944 33.0586 173.944 32.9931C173.911 32.9603 173.911 32.9276 173.845 32.8949L173.648 32.7966C173.583 32.7639 173.484 32.7311 173.419 32.6984V32.6329L174.731 32.1745H174.797V33.2223H174.829C174.928 33.1241 174.993 32.9931 175.092 32.8949C175.19 32.7639 175.321 32.6657 175.453 32.5674C175.584 32.4692 175.748 32.371 175.912 32.3055C176.076 32.24 176.273 32.2073 176.437 32.2073C176.765 32.1745 177.093 32.3382 177.322 32.6002C177.519 32.8949 177.65 33.2878 177.618 33.6479V36.3984C177.618 36.4311 177.65 36.4966 177.683 36.5293C177.716 36.5621 177.782 36.5948 177.847 36.5948C177.913 36.6276 177.978 36.6276 178.044 36.6276L178.241 36.6603V36.7585H176.141ZM182.308 36.7585H182.243V35.8417C182.079 36.1364 181.849 36.3656 181.554 36.5293C181.029 36.7913 180.406 36.824 179.881 36.6276C179.651 36.5293 179.455 36.3984 179.258 36.2019C179.061 36.0054 178.93 35.7435 178.831 35.5143C178.733 35.1869 178.667 34.8594 178.667 34.532C178.667 34.2046 178.733 33.9099 178.864 33.6152C178.995 33.3533 179.159 33.0913 179.389 32.8949C179.619 32.6657 179.881 32.5019 180.176 32.4037C180.504 32.2727 180.865 32.2073 181.193 32.24C181.39 32.24 181.554 32.2727 181.751 32.2727C181.915 32.3055 182.079 32.3382 182.243 32.4037C182.243 32.3055 182.243 32.1745 182.243 32.0108C182.243 31.8471 182.243 31.6834 182.243 31.5197V30.7338L181.423 30.4391V30.3737L182.997 29.948H183.063V36.0709C183.161 36.1364 183.26 36.1692 183.358 36.2019L183.752 36.3656V36.4311L182.308 36.7585ZM182.243 33.2223C182.112 32.9603 181.915 32.7639 181.685 32.6002C181.521 32.4692 181.292 32.371 181.062 32.371C180.832 32.371 180.603 32.4365 180.406 32.5347C180.209 32.6329 180.078 32.7966 179.947 32.9931C179.815 33.1895 179.717 33.4187 179.684 33.6479C179.619 33.9099 179.586 34.1391 179.586 34.401C179.586 34.663 179.619 34.8922 179.684 35.1541C179.75 35.3833 179.848 35.6125 179.979 35.809C180.111 36.0054 180.275 36.1364 180.471 36.2674C180.668 36.3984 180.898 36.4311 181.16 36.4311C181.423 36.4311 181.652 36.3329 181.849 36.1692C182.046 36.0054 182.177 35.7762 182.21 35.5143V33.2223H182.243ZM188.869 35.3506C188.738 35.6125 188.574 35.8745 188.377 36.1037C188.18 36.3329 187.918 36.4966 187.655 36.5948C187.36 36.7258 187.065 36.7585 186.77 36.7585C186.507 36.7585 186.212 36.7258 185.95 36.6276C185.654 36.5293 185.425 36.3984 185.195 36.2019C184.966 36.0054 184.769 35.7435 184.605 35.4816C184.441 35.1541 184.375 34.7939 184.375 34.4338C184.375 34.1391 184.441 33.8444 184.539 33.5825C184.637 33.3205 184.834 33.0586 185.031 32.8621C185.261 32.6329 185.49 32.4692 185.786 32.371C186.343 32.1418 186.999 32.109 187.557 32.3382C187.819 32.4365 188.082 32.5674 188.279 32.7639C188.508 32.9603 188.705 33.1895 188.836 33.4515C189 33.7462 189.066 34.1063 189.066 34.4338C189.066 34.7612 189 35.0886 188.869 35.3506ZM188.049 33.7462C188.016 33.517 187.918 33.2878 187.819 33.0586C187.721 32.8621 187.557 32.6984 187.36 32.5347C187.163 32.4037 186.934 32.3382 186.671 32.3382C186.474 32.3382 186.245 32.4037 186.081 32.5347C185.917 32.6657 185.753 32.8294 185.654 33.0258C185.523 33.2223 185.425 33.4842 185.392 33.7134C185.326 33.9754 185.294 34.2373 185.294 34.4993C185.294 34.7612 185.326 35.0559 185.359 35.3178C185.392 35.547 185.49 35.7762 185.622 36.0054C185.72 36.2019 185.884 36.3656 186.081 36.4638C186.278 36.5948 186.507 36.6276 186.737 36.6276C186.967 36.6276 187.196 36.5621 187.393 36.3984C187.59 36.2346 187.721 36.0709 187.819 35.8417C187.918 35.6125 188.016 35.3833 188.049 35.1214C188.082 34.8922 188.115 34.6302 188.115 34.401C188.147 34.2046 188.115 33.9754 188.049 33.7462ZM192.543 36.7585V36.6603C192.674 36.6603 192.838 36.6276 192.969 36.5948C193.068 36.5948 193.134 36.4966 193.134 36.3984V34.0409C193.134 33.7462 193.068 33.4187 192.904 33.1568C192.74 32.9276 192.445 32.7966 192.182 32.8294C191.985 32.8294 191.789 32.8621 191.625 32.9603C191.461 33.0586 191.297 33.1895 191.133 33.3533V36.4311C191.133 36.4966 191.165 36.5293 191.198 36.5621C191.231 36.5948 191.264 36.6276 191.329 36.6276C191.395 36.6276 191.428 36.6603 191.493 36.6603C191.559 36.6603 191.625 36.6603 191.69 36.693V36.7913H189.788V36.693C189.919 36.693 190.05 36.6603 190.181 36.5948C190.28 36.5621 190.345 36.4638 190.345 36.3656V33.1241C190.345 33.0913 190.345 33.0586 190.345 32.9931C190.312 32.9603 190.312 32.9276 190.247 32.8949L190.05 32.7966C189.984 32.7639 189.886 32.7311 189.82 32.6984V32.6329L191.1 32.2073H191.165V33.2223H191.198C191.297 33.1241 191.362 32.9931 191.461 32.8949C191.559 32.7639 191.69 32.6657 191.821 32.5674C191.953 32.4692 192.117 32.371 192.281 32.3055C192.445 32.24 192.609 32.2073 192.805 32.2073C193.134 32.1745 193.462 32.3382 193.691 32.6002C193.888 32.8949 194.019 33.2878 193.986 33.6479V36.3984C193.986 36.4311 194.019 36.4966 194.052 36.5293C194.085 36.5621 194.15 36.5948 194.216 36.5948C194.282 36.6276 194.347 36.6276 194.413 36.6276L194.61 36.6603V36.7585H192.543ZM204.713 32.5019C204.418 32.6657 204.155 32.8949 203.926 33.1241C203.663 33.386 203.434 33.6479 203.204 33.9099C202.974 34.2046 202.712 34.4993 202.45 34.794L202.778 35.1869C202.909 35.3506 203.073 35.5143 203.237 35.678C203.401 35.8417 203.565 35.9727 203.762 36.1037C203.959 36.2019 204.188 36.2674 204.418 36.2674C204.549 36.2674 204.68 36.2346 204.779 36.2019C204.91 36.1692 205.008 36.1037 205.107 36.0054C205.205 35.94 205.303 35.8417 205.369 35.7435C205.435 35.678 205.5 35.5798 205.566 35.5143L205.664 35.547C205.599 35.7108 205.5 35.8417 205.402 35.9727C205.271 36.1364 205.139 36.3001 204.975 36.4311C204.811 36.5621 204.615 36.693 204.385 36.7585C204.188 36.8568 203.959 36.8895 203.729 36.8895C203.532 36.8895 203.302 36.8568 203.138 36.7913C202.942 36.7258 202.778 36.6276 202.614 36.4966C202.45 36.3656 202.286 36.2346 202.154 36.0709C202.023 35.9072 201.892 35.7435 201.761 35.5798C201.531 35.9072 201.203 36.2019 200.875 36.3984C200.678 36.5293 200.449 36.6603 200.219 36.7258C199.957 36.824 199.694 36.8568 199.465 36.8568C199.169 36.8568 198.907 36.824 198.644 36.7258C198.415 36.6603 198.218 36.5293 198.021 36.3656C197.693 36.0709 197.496 35.6125 197.496 35.1869C197.496 34.9249 197.562 34.6957 197.66 34.4665C197.792 34.2373 197.923 34.0409 198.12 33.8771C198.316 33.6807 198.513 33.517 198.743 33.386C198.972 33.255 199.202 33.1241 199.432 33.0258C199.268 32.8949 199.136 32.7639 199.038 32.6329C198.907 32.5347 198.808 32.4037 198.71 32.2727C198.612 32.1418 198.546 32.0108 198.48 31.8471C198.415 31.6834 198.382 31.4869 198.382 31.3232C198.382 31.1267 198.448 30.9303 198.546 30.7666C198.644 30.6029 198.776 30.4391 198.94 30.3082C199.104 30.1772 199.301 30.079 199.497 30.0135C199.858 29.8825 200.252 29.8825 200.645 29.9807C200.809 30.0135 200.973 30.1117 201.105 30.2099C201.236 30.3082 201.367 30.4391 201.433 30.5701C201.531 30.7338 201.564 30.8975 201.564 31.094C201.564 31.2905 201.531 31.4869 201.433 31.6506C201.334 31.8143 201.236 31.9453 201.105 32.0763C201.006 32.1745 200.875 32.3055 200.744 32.371C200.613 32.4365 200.514 32.5019 200.449 32.5347C200.645 32.6657 200.842 32.8294 201.006 32.9931C201.17 33.1568 201.334 33.3205 201.498 33.517C201.662 33.7134 201.859 33.9099 201.99 34.1391C202.154 34.3355 202.286 34.532 202.384 34.7285C202.548 34.532 202.679 34.3683 202.81 34.1718C202.942 33.9754 203.073 33.8117 203.171 33.6479C203.27 33.517 203.335 33.3533 203.401 33.1895C203.467 33.0913 203.466 32.9603 203.499 32.8621C203.499 32.7311 203.467 32.6329 203.401 32.5347C203.302 32.4692 203.204 32.4037 203.106 32.371C202.974 32.3382 202.843 32.3055 202.679 32.3055L202.22 32.2727V32.1418L205.664 32.0763V32.24C205.336 32.2727 205.008 32.4037 204.746 32.5674L204.713 32.5019ZM200.744 30.8648C200.711 30.7338 200.645 30.6029 200.547 30.5046C200.481 30.4064 200.383 30.3082 200.252 30.2427C200.153 30.1772 200.022 30.1444 199.891 30.1444C199.793 30.1444 199.694 30.1772 199.596 30.2099C199.497 30.2427 199.432 30.3082 199.399 30.4064C199.333 30.4719 199.301 30.5701 199.268 30.6683C199.235 30.7338 199.235 30.8321 199.235 30.8975C199.235 31.0613 199.235 31.225 199.3 31.3559C199.366 31.4869 199.432 31.6179 199.497 31.7161C199.596 31.8471 199.727 31.9781 199.858 32.109L200.317 32.5019C200.481 32.3382 200.613 32.1745 200.678 31.9781C200.744 31.7816 200.809 31.5524 200.777 31.3232C200.809 31.1595 200.809 30.9958 200.744 30.8648ZM201.466 35.1214C201.4 35.0232 201.302 34.8922 201.236 34.794C201.17 34.6957 201.072 34.5975 200.973 34.4665L200.645 34.1063C200.58 34.0409 200.481 33.9426 200.416 33.8444C200.35 33.7462 200.219 33.6479 200.121 33.5497L199.825 33.2878L199.596 33.0913C199.465 33.1895 199.366 33.2878 199.235 33.4187C199.104 33.5497 199.005 33.6807 198.907 33.8117C198.808 33.9426 198.71 34.1063 198.677 34.2701C198.612 34.4338 198.579 34.6302 198.579 34.794C198.579 34.9904 198.612 35.1541 198.677 35.3178C198.743 35.4816 198.841 35.6453 198.972 35.7762C199.104 35.9072 199.235 36.0054 199.432 36.0709C199.596 36.1364 199.793 36.1692 199.989 36.1692C200.186 36.1692 200.35 36.1692 200.547 36.1364C200.711 36.1037 200.842 36.0709 200.973 36.0054C201.105 35.94 201.236 35.8745 201.367 35.7762C201.498 35.678 201.63 35.5798 201.761 35.4488C201.597 35.3506 201.531 35.2196 201.466 35.1214ZM215.44 31.7489C215.374 31.6179 215.308 31.5197 215.243 31.3887C215.177 31.2577 215.079 31.1595 215.013 31.0613C214.948 30.963 214.849 30.8648 214.784 30.7666C214.718 30.7011 214.652 30.6356 214.587 30.5701C214.456 30.4391 214.292 30.3737 214.128 30.3082C213.931 30.2754 213.701 30.2427 213.504 30.2427H212.258C212.258 30.4064 212.258 30.6029 212.258 30.8975C212.258 31.1922 212.258 31.4542 212.258 31.7489V35.3833C212.258 35.5798 212.258 35.7435 212.258 35.9072C212.258 36.0382 212.291 36.1692 212.356 36.2674C212.455 36.3984 212.619 36.4966 212.783 36.5621C212.947 36.5948 213.111 36.6603 213.275 36.693V36.7913H210.06V36.693C210.224 36.6603 210.388 36.6276 210.552 36.5948C210.749 36.5293 210.88 36.4311 211.011 36.3001C211.044 36.2674 211.077 36.2019 211.077 36.1364C211.11 36.0709 211.11 35.9727 211.11 35.9072C211.11 35.809 211.11 35.7108 211.142 35.6125C211.175 35.5143 211.142 35.4161 211.142 35.3178C211.142 35.2196 211.142 35.1214 211.142 34.9577C211.142 34.794 211.142 34.663 211.142 34.4665C211.142 34.2701 211.142 34.1063 211.142 33.9099V30.2099H209.896C209.699 30.2099 209.469 30.2427 209.273 30.3082C209.109 30.3737 208.977 30.4719 208.846 30.5701C208.781 30.6356 208.715 30.7011 208.649 30.7666L208.42 31.0613C208.354 31.1595 208.256 31.2905 208.19 31.3887C208.125 31.4869 208.059 31.6179 208.026 31.7489L207.928 31.7161L208.223 29.9152C208.387 29.948 208.518 29.9807 208.649 29.9807C208.846 30.0135 209.01 30.0135 209.207 30.0135H209.896H212.914H213.504H214.193C214.357 30.0135 214.554 29.9807 214.718 29.9807C214.849 29.948 215.013 29.9153 215.144 29.8825L215.472 31.7161L215.44 31.7489ZM218.589 36.7585V36.6603C218.753 36.6603 218.884 36.6276 219.048 36.5948C219.179 36.5621 219.212 36.4966 219.212 36.3984V34.0409C219.212 33.8771 219.212 33.7134 219.179 33.517C219.146 33.386 219.114 33.2223 219.048 33.1241C218.982 33.0258 218.884 32.9276 218.753 32.8621C218.622 32.7966 218.458 32.7639 218.294 32.7639C218.097 32.7639 217.867 32.7966 217.703 32.8949C217.539 32.9603 217.408 33.0913 217.309 33.2223C217.277 33.255 217.277 33.2878 217.244 33.3533C217.211 33.4187 217.211 33.4515 217.211 33.517V36.3984C217.211 36.4311 217.211 36.4966 217.277 36.5293C217.309 36.5621 217.375 36.5948 217.408 36.5948C217.473 36.6276 217.539 36.6276 217.572 36.6276L217.769 36.6603V36.7585H215.8V36.6603C215.932 36.6603 216.063 36.6276 216.194 36.5948C216.293 36.5621 216.391 36.4638 216.391 36.3656V31.0285C216.391 30.9958 216.391 30.963 216.391 30.8975C216.358 30.8648 216.325 30.8321 216.293 30.7993C216.227 30.7338 216.161 30.7011 216.063 30.6683C215.965 30.6356 215.899 30.5701 215.8 30.5374V30.4719L217.113 29.8825H217.178L217.145 33.1568H217.178C217.244 33.0586 217.309 32.9603 217.408 32.8621C217.506 32.7311 217.637 32.6329 217.769 32.5347C217.933 32.4365 218.097 32.3382 218.261 32.2727C218.458 32.2073 218.654 32.1745 218.884 32.1745C219.081 32.1745 219.245 32.2073 219.442 32.2727C219.573 32.3382 219.704 32.4365 219.802 32.5674C219.901 32.6984 219.967 32.8621 219.999 33.0258C220.032 33.2223 220.065 33.4187 220.065 33.6152V36.3984C220.065 36.4311 220.098 36.4966 220.131 36.5293C220.163 36.5621 220.229 36.5948 220.295 36.5948C220.36 36.5948 220.426 36.6276 220.491 36.6276L220.688 36.6603V36.7585H218.589ZM224.953 35.7762C224.854 35.94 224.723 36.1037 224.559 36.2346C224.395 36.3984 224.198 36.4966 224.001 36.5948C223.772 36.693 223.509 36.7258 223.28 36.7258C222.952 36.7258 222.656 36.6603 222.361 36.5621C222.099 36.4311 221.836 36.2674 221.639 36.0709C221.443 35.8417 221.279 35.5798 221.18 35.3178C221.082 35.0232 221.016 34.6957 221.016 34.401C221.016 34.1391 221.082 33.8771 221.18 33.6152C221.279 33.3533 221.41 33.1241 221.607 32.9276C221.803 32.7311 222 32.5347 222.263 32.4365C222.525 32.3055 222.82 32.24 223.116 32.24C223.345 32.24 223.608 32.2727 223.837 32.3382C224.067 32.4037 224.264 32.5019 224.428 32.6329C224.592 32.7639 224.723 32.9276 224.821 33.1241C224.92 33.3533 224.985 33.5825 225.018 33.8117H221.836C221.836 33.8444 221.836 33.9099 221.836 33.9754C221.836 34.0409 221.836 34.1063 221.836 34.1718C221.836 34.4338 221.869 34.6957 221.968 34.9249C222.033 35.1541 222.164 35.3833 222.328 35.5798C222.492 35.7762 222.689 35.9072 222.919 36.0054C223.181 36.1037 223.444 36.1692 223.706 36.1692C224.001 36.1692 224.329 36.1037 224.559 35.94C224.789 35.809 224.953 35.6125 225.051 35.3506L225.117 35.3833C225.117 35.5143 225.051 35.678 224.953 35.7762ZM223.837 32.6329C223.64 32.4692 223.411 32.371 223.148 32.371C222.984 32.371 222.788 32.4365 222.656 32.5347C222.525 32.6329 222.394 32.7639 222.263 32.8949C222.164 33.0258 222.066 33.1568 222 33.3205C221.968 33.4187 221.902 33.5497 221.902 33.6479H222.656H223.017H223.444H223.706C223.772 33.6479 223.87 33.6152 223.936 33.6152C223.969 33.5825 224.001 33.517 224.034 33.4842C224.067 33.4187 224.067 33.3533 224.067 33.2878C224.1 33.0586 224.001 32.8294 223.837 32.6329ZM233.809 36.7585V36.6603C234.072 36.6603 234.302 36.5948 234.531 36.4966C234.695 36.4311 234.826 36.3001 234.925 36.1364C234.958 36.0382 234.99 35.94 235.023 35.8417C235.056 35.7108 235.056 35.5798 235.056 35.4816C235.056 35.0559 235.089 34.663 235.089 34.3028V30.4391C234.859 30.8975 234.662 31.3232 234.498 31.7161C234.334 32.109 234.137 32.5019 233.973 32.8621C233.809 33.2223 233.613 33.6152 233.449 34.0081L232.858 35.2851C232.825 35.3506 232.793 35.4488 232.727 35.5798C232.661 35.7108 232.596 35.8417 232.563 36.0054C232.53 36.1692 232.465 36.2674 232.399 36.3984C232.333 36.5293 232.301 36.5948 232.301 36.6276H232.235L231.612 35.2524C231.415 34.7939 231.218 34.3355 230.988 33.9426L230.431 32.7639C230.267 32.4037 230.103 32.0763 229.971 31.7816C229.84 31.4869 229.709 31.2577 229.643 31.0613C229.578 30.8648 229.479 30.7338 229.447 30.6683C229.447 31.094 229.447 31.4542 229.447 31.7816C229.447 32.109 229.447 32.4037 229.447 32.7311C229.447 33.0586 229.447 33.386 229.447 33.7134V34.9249C229.447 35.2196 229.447 35.4816 229.479 35.678C229.479 35.8745 229.545 36.0709 229.643 36.2346C229.709 36.3656 229.84 36.4638 229.971 36.5621C230.168 36.6603 230.398 36.7258 230.628 36.7585V36.8568H228.036V36.7585C228.233 36.7258 228.43 36.6603 228.594 36.5621C228.725 36.4638 228.856 36.3656 228.922 36.2019C229.02 36.0382 229.086 35.8417 229.119 35.6453C229.151 35.3833 229.184 35.0886 229.184 34.8267C229.184 34.5647 229.217 34.2373 229.217 33.8771C229.217 33.517 229.217 33.1241 229.217 32.6984V31.5197C229.217 31.3887 229.217 31.225 229.217 31.0613C229.217 30.8975 229.184 30.7666 229.086 30.6356C229.02 30.5374 228.922 30.4391 228.823 30.3737C228.725 30.3082 228.627 30.2754 228.495 30.2427C228.397 30.2099 228.299 30.2099 228.2 30.1772V30.079H230.3L232.661 35.1869C232.957 34.5975 233.252 34.0081 233.514 33.4187C233.777 32.8294 234.039 32.3055 234.269 31.8143C234.498 31.3232 234.662 30.9303 234.826 30.6356C234.99 30.3409 235.056 30.1445 235.056 30.079H237.155V30.1772C236.926 30.1772 236.729 30.2099 236.532 30.3409C236.401 30.4391 236.303 30.5374 236.237 30.7011C236.204 30.8648 236.171 31.0285 236.171 31.1922C236.171 31.4214 236.138 31.6506 236.138 31.8471C236.138 32.1418 236.138 32.4365 236.138 32.7311V34.6302C236.138 34.9577 236.138 35.3178 236.138 35.678C236.138 35.809 236.138 35.9072 236.171 36.0382C236.171 36.1364 236.204 36.2346 236.27 36.3329C236.302 36.3656 236.302 36.3984 236.335 36.4311C236.401 36.4966 236.467 36.5293 236.532 36.5948C236.631 36.6603 236.729 36.693 236.827 36.7258C236.959 36.7585 237.09 36.7913 237.254 36.7913V36.8895H233.809V36.7585ZM239.386 31.094C239.288 31.1922 239.156 31.2577 238.992 31.225C238.861 31.225 238.73 31.1595 238.599 31.0613C238.5 30.963 238.435 30.8321 238.435 30.7011C238.435 30.5701 238.5 30.4391 238.599 30.3409C238.697 30.2427 238.828 30.2099 238.992 30.2099C239.124 30.2099 239.288 30.2427 239.386 30.3409C239.484 30.4391 239.55 30.5701 239.55 30.7011C239.55 30.8648 239.484 30.9958 239.386 31.094ZM237.975 36.7585V36.6603L238.205 36.6276C238.271 36.6276 238.336 36.5948 238.435 36.5948C238.5 36.5621 238.533 36.5293 238.599 36.4966C238.632 36.4638 238.664 36.3984 238.664 36.3656V33.1241C238.664 33.0913 238.664 33.0258 238.664 32.9931C238.664 32.9603 238.632 32.9276 238.566 32.8949C238.5 32.8621 238.435 32.8294 238.336 32.7639C238.238 32.7311 238.172 32.6984 238.074 32.6657V32.6002L239.386 32.2073H239.452V36.4311C239.452 36.4966 239.484 36.5293 239.55 36.5621C239.583 36.5948 239.648 36.6276 239.714 36.6276C239.78 36.6276 239.845 36.6603 239.911 36.6603C239.976 36.6603 240.042 36.6603 240.108 36.693V36.7913L237.975 36.7585ZM244.372 36.7913H244.306V35.8417C244.142 36.1364 243.913 36.3656 243.618 36.5293C243.322 36.693 242.962 36.7585 242.634 36.7585C242.404 36.7585 242.141 36.7258 241.912 36.6276C241.682 36.5293 241.485 36.3984 241.289 36.2019C241.092 36.0054 240.961 35.7435 240.862 35.5143C240.764 35.1869 240.698 34.8594 240.698 34.532C240.698 33.9099 240.961 33.3205 241.387 32.8949C241.617 32.6657 241.879 32.5019 242.174 32.4037C242.502 32.2727 242.863 32.2073 243.191 32.24C243.388 32.24 243.552 32.24 243.749 32.2727C243.913 32.3055 244.077 32.3382 244.241 32.4037C244.241 32.3055 244.241 32.1745 244.241 32.0108C244.241 31.8471 244.241 31.6834 244.241 31.5197V30.7338L243.421 30.4391V30.3737L244.995 29.948H245.061V36.0709C245.159 36.1364 245.258 36.1692 245.356 36.2019L245.75 36.3656V36.4311L244.372 36.7913ZM244.306 33.255C244.175 32.9931 243.978 32.7966 243.749 32.6329C243.585 32.5019 243.355 32.4037 243.126 32.4037C242.896 32.4037 242.666 32.4692 242.47 32.5674C242.273 32.6984 242.141 32.8294 242.01 33.0258C241.879 33.2223 241.813 33.4515 241.748 33.6807C241.682 33.9426 241.649 34.1718 241.649 34.4338C241.649 34.6957 241.682 34.9249 241.748 35.1869C241.813 35.4161 241.912 35.6453 242.043 35.8417C242.174 36.0382 242.338 36.1692 242.535 36.3001C242.732 36.4311 242.962 36.4638 243.224 36.4638C243.486 36.4638 243.716 36.3656 243.913 36.2019C244.11 36.0382 244.241 35.809 244.274 35.547L244.306 33.255ZM250.014 36.7913H249.949V35.8417C249.785 36.1364 249.555 36.3656 249.26 36.5293C248.735 36.7913 248.112 36.824 247.587 36.6276C247.357 36.5293 247.16 36.3984 246.964 36.2019C246.767 36.0054 246.635 35.7435 246.537 35.5143C246.439 35.1869 246.373 34.8594 246.373 34.532C246.373 34.2046 246.439 33.9099 246.537 33.6152C246.668 33.3533 246.832 33.0913 247.062 32.8949C247.292 32.6657 247.554 32.5019 247.849 32.4037C248.177 32.2727 248.505 32.24 248.866 32.24C249.063 32.24 249.227 32.2727 249.424 32.2727C249.588 32.3055 249.752 32.3382 249.916 32.4037C249.916 32.3055 249.916 32.1745 249.916 32.0108C249.916 31.8471 249.916 31.6834 249.916 31.5197V30.7338L249.096 30.4391V30.3737L250.67 29.948H250.736V36.0709C250.834 36.1364 250.933 36.1692 251.031 36.2019L251.425 36.3656V36.4311L250.014 36.7913ZM249.916 33.255C249.785 32.9931 249.588 32.7966 249.358 32.6329C249.194 32.5019 248.965 32.4037 248.735 32.4037C248.505 32.4037 248.276 32.4692 248.079 32.5674C247.882 32.6657 247.751 32.8294 247.62 33.0258C247.488 33.2223 247.39 33.4515 247.357 33.6807C247.292 33.9426 247.259 34.1718 247.259 34.4338C247.259 34.6957 247.292 34.9249 247.357 35.1869C247.423 35.4161 247.521 35.6453 247.652 35.8417C247.784 36.0382 247.948 36.1692 248.144 36.3001C248.341 36.4311 248.571 36.4638 248.833 36.4638C249.096 36.4638 249.358 36.3329 249.522 36.1692C249.719 36.0054 249.85 35.7762 249.883 35.5143L249.916 33.255ZM251.884 36.7585V36.6603C252.081 36.6603 252.278 36.6276 252.474 36.5621C252.573 36.5293 252.638 36.4311 252.638 36.3656V30.9303C252.638 30.8975 252.638 30.8648 252.638 30.7993C252.606 30.7666 252.573 30.7338 252.54 30.7011L252.278 30.5701C252.179 30.5046 252.081 30.4719 251.982 30.4391V30.3737L253.393 29.9152H253.459V36.3656C253.459 36.4311 253.459 36.4638 253.491 36.4966C253.524 36.5293 253.557 36.5621 253.623 36.5621C253.688 36.5621 253.787 36.5948 253.852 36.5948C253.951 36.5948 254.049 36.5948 254.18 36.6276V36.7258L251.884 36.7585ZM258.51 35.809C258.412 35.9727 258.281 36.1364 258.117 36.2674C257.953 36.4311 257.756 36.5293 257.559 36.6276C257.329 36.7258 257.067 36.7585 256.837 36.7585C256.509 36.7585 256.214 36.693 255.919 36.5948C255.656 36.4638 255.394 36.3001 255.197 36.1037C255 35.8745 254.836 35.6125 254.738 35.3506C254.639 35.0559 254.574 34.7285 254.574 34.4338C254.574 34.1718 254.639 33.9099 254.738 33.6479C254.836 33.386 254.967 33.1568 255.164 32.9603C255.361 32.7639 255.558 32.5674 255.82 32.4692C256.083 32.3382 256.378 32.2727 256.673 32.2727C256.903 32.2727 257.165 32.3055 257.395 32.371C257.625 32.4365 257.821 32.5347 257.985 32.6657C258.149 32.7966 258.281 32.9603 258.379 33.1568C258.477 33.386 258.543 33.6152 258.576 33.8444H255.394C255.394 33.8771 255.394 33.9426 255.394 34.0081C255.394 34.0736 255.394 34.1391 255.394 34.2046C255.394 34.4665 255.427 34.7285 255.525 34.9577C255.591 35.1869 255.722 35.4161 255.886 35.6125C256.05 35.809 256.247 35.94 256.476 36.0382C256.739 36.1364 257.001 36.2019 257.264 36.2019C257.559 36.2019 257.887 36.1364 258.117 35.9727C258.346 35.8417 258.51 35.6453 258.609 35.3833L258.674 35.4161C258.674 35.5143 258.609 35.678 258.51 35.809ZM257.395 32.6657C257.198 32.5019 256.968 32.4037 256.706 32.4037C256.542 32.4037 256.345 32.4692 256.214 32.5674C256.083 32.6657 255.952 32.7966 255.82 32.9276C255.722 33.0586 255.624 33.1895 255.558 33.3533C255.525 33.4515 255.46 33.5825 255.46 33.6807H256.214H256.575H257.001H257.264C257.329 33.6807 257.428 33.6479 257.493 33.6479C257.526 33.6152 257.559 33.5497 257.592 33.517C257.625 33.4515 257.625 33.386 257.625 33.3205C257.657 33.0586 257.559 32.8294 257.395 32.6657ZM267.761 36.824H261.692V36.7258C261.856 36.693 261.987 36.6603 262.151 36.5948C262.283 36.5293 262.414 36.4638 262.512 36.3656C262.545 36.3329 262.578 36.2674 262.578 36.2019C262.611 36.1364 262.611 36.0382 262.643 35.94C262.676 35.8417 262.676 35.7435 262.676 35.6453C262.676 35.547 262.676 35.4488 262.676 35.3506C262.676 35.2524 262.676 35.1541 262.676 34.9904C262.676 34.8267 262.676 34.663 262.676 34.4993C262.676 34.3355 262.676 34.1391 262.676 33.9426V31.5851C262.676 31.4542 262.676 31.3559 262.676 31.225C262.676 31.094 262.676 30.9958 262.643 30.8975C262.643 30.7993 262.611 30.7011 262.578 30.6029C262.578 30.5374 262.545 30.4719 262.479 30.4064C262.381 30.3082 262.283 30.2427 262.151 30.2099C262.053 30.1772 261.889 30.1444 261.725 30.1444V30.0462H267.203L267.892 31.5851L267.794 31.6179C267.4 31.094 266.875 30.6683 266.285 30.3409C266.088 30.2754 265.858 30.2427 265.661 30.2099C265.301 30.1772 264.907 30.1444 264.546 30.1444C264.415 30.1444 264.251 30.1444 264.12 30.1444C264.021 30.1444 263.89 30.1444 263.792 30.1772C263.792 30.2754 263.759 30.4719 263.759 30.7993C263.759 31.1267 263.759 31.4869 263.759 31.8798V32.5674C263.759 32.7311 263.759 32.8621 263.759 32.9603C263.759 33.0586 263.759 33.1568 263.759 33.1895V33.2878H263.956C264.054 33.2878 264.185 33.2878 264.284 33.2878L264.677 33.255C264.776 33.255 264.907 33.2223 265.005 33.2223C265.169 33.1895 265.333 33.1241 265.497 33.0258C265.629 32.9603 265.727 32.8621 265.825 32.7639C265.924 32.6657 265.989 32.5347 266.022 32.4037C266.088 32.24 266.121 32.0763 266.153 31.9453H266.285V34.9249H266.153C266.121 34.6957 266.055 34.4338 265.989 34.2046C265.924 34.0409 265.793 33.8771 265.661 33.7134C265.563 33.6152 265.432 33.5497 265.268 33.4842C265.104 33.4187 264.94 33.386 264.743 33.386H264.48H263.824C263.792 33.517 263.792 33.6479 263.792 33.7789V34.8922C263.792 34.9904 263.792 35.0886 263.792 35.1869C263.792 35.2851 263.792 35.3506 263.792 35.4161C263.792 35.6125 263.792 35.809 263.824 35.9727C263.824 36.1037 263.857 36.2674 263.923 36.3656C264.021 36.4638 264.185 36.5293 264.349 36.5621C264.579 36.5948 264.841 36.6276 265.071 36.6276H265.497C265.661 36.6276 265.858 36.5948 266.055 36.5948C266.252 36.5621 266.449 36.5293 266.645 36.4638C266.842 36.3984 267.006 36.2674 267.17 36.1692C267.334 36.0382 267.498 35.8745 267.662 35.678C267.826 35.4488 267.99 35.2196 268.154 34.9904L268.253 35.0232L267.761 36.824ZM272.976 36.2674C272.911 36.3656 272.845 36.4966 272.78 36.5621C272.681 36.6603 272.583 36.7258 272.484 36.7585C272.353 36.7913 272.222 36.824 272.091 36.824C271.861 36.824 271.664 36.7585 271.5 36.6276C271.303 36.4638 271.205 36.2346 271.238 35.9727H271.205C271.139 36.0709 271.074 36.1692 270.975 36.2346C270.877 36.3329 270.779 36.4311 270.647 36.5293C270.516 36.6276 270.385 36.693 270.254 36.7258C270.09 36.7913 269.926 36.7913 269.762 36.7913C269.663 36.7913 269.532 36.7913 269.434 36.7585C269.335 36.7258 269.237 36.693 269.138 36.5948C269.04 36.5293 268.974 36.4311 268.909 36.3329C268.843 36.2019 268.81 36.0709 268.81 35.9072C268.81 35.7108 268.909 35.547 269.04 35.3833C269.204 35.2196 269.368 35.0559 269.598 34.9249C269.827 34.7939 270.024 34.6957 270.188 34.5975C270.352 34.4993 270.516 34.4338 270.615 34.3683L270.943 34.2046L271.172 34.0736V33.0913C271.172 33.0586 271.139 33.0258 271.139 32.9931C271.107 32.9276 271.074 32.8949 271.008 32.8621C270.943 32.7966 270.844 32.7639 270.779 32.7311C270.647 32.6984 270.516 32.6657 270.385 32.6657C270.287 32.6657 270.155 32.6657 270.057 32.7311C269.959 32.7639 269.86 32.7966 269.795 32.8621C269.729 32.8949 269.663 32.9603 269.598 33.0258C269.565 33.0586 269.532 33.1241 269.532 33.1568V33.5825C269.532 33.6807 269.467 33.7789 269.401 33.8117C269.303 33.8771 269.204 33.9099 269.073 33.9099C268.974 33.9099 268.876 33.8771 268.81 33.8117C268.745 33.7462 268.712 33.6479 268.712 33.5497C268.712 33.4842 268.745 33.4187 268.778 33.3533C268.81 33.2878 268.876 33.2223 268.942 33.1895C269.007 33.1241 269.073 33.0913 269.138 33.0586L269.303 32.9603C269.467 32.8621 269.663 32.7639 269.827 32.6984C269.991 32.6329 270.188 32.5347 270.352 32.4692C270.483 32.4037 270.647 32.371 270.811 32.3055C270.91 32.2727 271.041 32.24 271.139 32.24C271.303 32.24 271.467 32.2727 271.632 32.371C271.763 32.4365 271.894 32.5674 271.96 32.6984C271.992 32.7639 272.025 32.8621 272.025 32.9276C272.025 33.0258 272.025 33.1568 272.025 33.255C272.025 33.4842 272.025 33.6807 272.025 33.8771C272.025 34.0736 272.025 34.2373 272.025 34.401C272.025 34.5647 272.025 34.7285 272.025 34.9249C272.025 35.1214 272.025 35.2851 272.025 35.5143C271.992 35.7108 272.058 35.9072 272.189 36.0709C272.32 36.1364 272.452 36.1364 272.583 36.1037C272.714 36.1037 272.812 36.0709 272.911 36.0054C272.976 35.94 273.042 35.8745 273.075 35.7762H273.14C273.14 35.9072 273.108 36.0054 273.042 36.1364L272.976 36.2674ZM271.205 34.1718C271.074 34.2701 270.91 34.3683 270.746 34.4338C270.582 34.532 270.385 34.6302 270.221 34.7285C270.057 34.8267 269.926 34.9577 269.795 35.0886C269.663 35.2196 269.598 35.3506 269.598 35.5143C269.598 35.678 269.663 35.8417 269.762 35.9727C269.893 36.1037 270.057 36.1692 270.221 36.1692C270.385 36.1692 270.516 36.1364 270.68 36.1037C270.811 36.0709 270.943 35.9727 271.041 35.8745C271.107 35.809 271.172 35.7108 271.172 35.6125L271.205 34.1718ZM276.749 36.0054C276.65 36.1692 276.519 36.3329 276.322 36.4311C276.158 36.5621 275.929 36.6276 275.732 36.693C275.502 36.7585 275.273 36.7585 275.043 36.7585C274.781 36.7585 274.485 36.7258 274.223 36.693C273.993 36.6603 273.731 36.5621 273.501 36.4638V35.2196H273.567C273.633 35.3833 273.698 35.547 273.764 35.678C273.829 35.8417 273.928 36.0054 274.059 36.1364C274.157 36.2674 274.321 36.3984 274.453 36.4966C274.617 36.5948 274.813 36.6276 275.01 36.6276C275.273 36.6276 275.568 36.5621 275.765 36.3656C275.962 36.1692 276.06 35.8745 276.06 35.5798C276.06 35.3833 275.994 35.2196 275.863 35.0886C275.732 34.9577 275.535 34.8594 275.338 34.8267C275.174 34.794 274.977 34.7612 274.813 34.7285C274.649 34.6957 274.518 34.663 274.387 34.5975C274.157 34.532 273.928 34.3683 273.797 34.1718C273.633 33.9754 273.567 33.7134 273.567 33.4515C273.567 33.255 273.6 33.0913 273.698 32.9276C273.797 32.7639 273.895 32.6329 274.059 32.5347C274.223 32.4037 274.387 32.3382 274.551 32.2727C274.748 32.2073 274.945 32.1745 275.174 32.1745C275.404 32.1745 275.666 32.2073 275.896 32.24C276.093 32.2727 276.29 32.3382 276.486 32.4037L276.618 33.5825L276.552 33.6152C276.454 33.4187 276.355 33.255 276.29 33.0913C276.191 32.9276 276.093 32.7966 275.994 32.6657C275.896 32.5674 275.765 32.4692 275.601 32.4037C275.437 32.3382 275.273 32.3055 275.109 32.3055C275.01 32.3055 274.879 32.3382 274.781 32.371C274.682 32.4037 274.584 32.4692 274.485 32.5347C274.387 32.6002 274.321 32.6984 274.289 32.7966C274.223 32.9276 274.223 33.0586 274.223 33.1895C274.19 33.386 274.289 33.5825 274.42 33.6807C274.584 33.7789 274.748 33.8771 274.945 33.9099L275.437 34.0081C275.601 34.0409 275.765 34.0736 275.896 34.1063C276.191 34.1718 276.454 34.3355 276.65 34.532C276.847 34.7612 276.978 35.0559 276.978 35.3506C276.913 35.6125 276.847 35.809 276.749 36.0054ZM280.357 32.8621H278.848V35.3506C278.815 35.6125 278.914 35.8417 279.078 36.0382C279.242 36.1692 279.439 36.2674 279.636 36.2674C279.8 36.2674 279.964 36.2346 280.128 36.1692C280.259 36.1037 280.357 36.0054 280.456 35.8745L280.521 35.9072C280.488 36.0054 280.423 36.1037 280.357 36.2019C280.292 36.3001 280.193 36.3984 280.095 36.4966C279.964 36.5948 279.832 36.6603 279.701 36.693C279.537 36.7258 279.34 36.7585 279.143 36.7585C279.012 36.7585 278.881 36.7258 278.75 36.693C278.619 36.6603 278.52 36.5948 278.422 36.4966C278.323 36.4311 278.258 36.3329 278.192 36.2346C278.127 36.1364 278.094 36.0382 278.094 35.94C278.094 35.3506 278.094 34.7939 278.094 34.2701C278.094 33.7462 278.094 33.255 278.094 32.8621H277.372V32.7639L278.783 31.4869H278.848V32.3055H280.685L280.357 32.8621Z" fill="white"/>
<path d="M12.3561 15.9667C9.56788 15.9667 7.89492 16.8507 6.05794 18.3569V0.806702L0.317383 1.85448C1.13746 2.11642 2.02315 2.24739 2.02315 3.62259V17.0145V33.6479C2.02315 35.6452 1.10466 36.5947 0.382989 36.8894C0.382989 36.8894 3.30247 37.1841 4.94263 35.6779C6.41877 36.3328 8.28855 36.8894 10.0927 36.8894C17.4406 36.8894 21.1146 30.9957 21.1146 25.8878C21.1146 21.5002 18.0967 15.9667 12.3561 15.9667ZM10.7488 35.2523C7.27166 35.2523 6.05794 33.2877 6.05794 33.2877V19.9286C7.30446 18.5534 9.14144 18.2259 10.6176 18.2259C13.2418 18.2259 16.8174 20.0596 16.8174 26.0515C16.7846 32.9603 12.9794 35.2523 10.7488 35.2523Z" fill="white"/>
<path d="M79.9614 34.3681C75.1066 34.3681 72.6463 30.5372 72.6463 26.1496V24.9381H87.4734C87.4734 18.4878 82.7497 15.9338 78.8789 15.9338C71.8591 15.9338 68.3491 21.7621 68.3491 26.5098C68.3491 31.6832 72.2855 36.922 78.7477 36.922C83.6354 36.922 87.1781 33.4513 87.3094 29.8823C86.4237 31.8796 83.1762 34.3681 79.9614 34.3681ZM78.3213 17.4727C80.8471 17.4727 83.2746 19.0771 83.2746 23.301H72.8432C73.204 20.3214 74.9754 17.4727 78.3213 17.4727Z" fill="white"/>
<path d="M64.7406 21.9585V35.1212C64.7406 36.1035 65.1999 36.3981 65.9543 36.7911C65.9543 36.7911 60.8043 37.7079 60.8043 33.9752V23.301C60.8043 20.6815 59.4921 18.455 55.9166 18.455C54.0468 18.455 52.0458 19.6992 50.8977 21.2382C50.9633 21.4346 50.9961 21.6638 50.9961 21.893V35.1539C50.9961 36.1362 51.4553 36.4309 52.2098 36.8238C52.2098 36.8238 46.9613 37.3149 46.9613 34.0734V23.1045C46.9613 20.5833 45.846 18.4223 42.1392 18.4223C40.007 18.4223 38.3341 19.6665 37.4484 20.6815V35.1212C37.4484 36.1035 38.006 36.3981 38.7605 36.7911H32.2327C32.9872 36.3981 33.4464 36.0707 33.4464 35.1212V18.7497C33.4464 17.3745 32.5607 17.2108 31.7734 16.9816L37.4484 15.9338V18.9789C38.5637 18.1276 41.0567 15.9338 44.2386 15.9338C46.8301 15.9338 49.6184 17.309 50.5697 19.8302C52.013 18.0294 54.9325 15.9338 57.9176 15.9338C61.0339 15.9338 64.7734 17.8329 64.7406 21.9585Z" fill="white"/>
<path d="M28.7235 0.806702V35.2195C28.7235 36.2018 29.1827 36.4965 29.9372 36.8894C29.9372 36.8894 24.6887 36.9876 24.6887 33.9098V3.62259C24.6887 2.24739 23.803 2.11642 22.9829 1.85448L28.7235 0.806702Z" fill="white"/>
</g>
<defs>
<clipPath id="clip0">
<rect width="280.5" height="36.2792" fill="white" transform="translate(0.25 0.806702)"/>
</clipPath>
</defs>
</svg>
