<svg id="Layer_1" data-name="Layer 1" xmlns="http://www.w3.org/2000/svg" viewBox="0 0 1080 1080"><defs><style>.cls-1{fill:#fff;}.cls-2{fill:#c8102e;}</style></defs><path class="cls-1" d="M939.35,477.05H918.81l0,37.88c0,6-3.34,9.38-9.15,9.38H743.05V479.06c-1.44-.41-2.83-.8-4.21-1.16-14.7-3.79-22.41-3.94-25-3.94-6.85,0-16.14,1.23-22.43,5a37.1,37.1,0,0,0-13.26,12.82,33.2,33.2,0,0,0-4.63,17.66,33.94,33.94,0,0,0,11.84,26.1c.35.3,8.22,8.07,22.4,8.72h15.62c-2,8.48-8.87,13.47-17.93,13.47H692.11l8.5,18.87h4.83a37.58,37.58,0,0,0,37.19-32.35l6.14.08H911.64a36.22,36.22,0,0,0,8.09-.87l.76-.18c15.85-4.07,18.62-19.52,18.86-28.36,0-.53,0-1,0-1.49ZM722.84,524.14l-.59.35c-2.81,1.65-6.5,2.48-11,2.48-5.84,0-10.28-1.78-13.61-5.44a18.78,18.78,0,0,1-4.07-12.43c-.2-5.2,1.36-9.52,4.62-12.8,3.57-3.68,8.34-5.48,14.59-5.48a39.68,39.68,0,0,1,9,1l1.07.25Z"/><path class="cls-1" d="M181,476.82a33.21,33.21,0,0,0,10.28-2.13v-16H170.78v9.89C170.78,474.14,174.12,476.82,181,476.82Z"/><path class="cls-1" d="M634.36,515.05c0,5.77-3.36,9.22-9,9.22H470c-9.06,0-11.67-5.07-11.59-14.88V477.05H438.16v35.3c0,8.3-3.88,12.17-12.2,12.17H268.25c-5.57,0-8.76-3.37-8.76-9.22V446.56h-20v67.26c0,19.59,9.69,30.37,27.27,30.37H427.14c8.39,0,15.84-3.39,19.93-9.06l1.06-1.47,1.16,1.39c5,6,12.08,9.14,20.54,9.14H627.34c24.61,0,27.27-21.24,27.27-30.37V477.05H634.36Z"/><path class="cls-1" d="M200.41,542.29a5.48,5.48,0,0,0,.08.66,13.49,13.49,0,0,1,.18,1.91v1l-.9.35c-7.14,2.8-13.74,4.22-19.61,4.22-13.26,0-20.26-6.54-20.26-18.91V496.41H140v38.67c0,21.56,13.05,32,39.9,32,10.56,0,23.7-2.73,40.15-8.33V496.41H200.41Z"/><path class="cls-1" d="M391.65,568.4c0,5.52,3.34,8.2,10.21,8.2a33.21,33.21,0,0,0,10.28-2.13v-16H391.65Z"/><path class="cls-1" d="M426.55,568.4c0,5.52,3.34,8.2,10.21,8.2A33.21,33.21,0,0,0,447,574.47v-16H426.55Z"/><path class="cls-1" d="M613.92,568.4c0,5.52,3.34,8.2,10.21,8.2a33.21,33.21,0,0,0,10.28-2.13v-16H613.92Z"/><path class="cls-1" d="M883.53,568.4c0,5.52,3.34,8.2,10.21,8.2A33.21,33.21,0,0,0,904,574.47v-16H883.53Z"/><path class="cls-2" d="M505.47,295.05A442.16,442.16,0,0,0,459,300.17a.44.44,0,0,0,.09.88c62.21,1.79,116.62,35.62,148.45,86.08a78,78,0,0,0,65.93,36.33l22.74.29h78.65C730.81,346.9,626.72,289.06,505.47,295.05Z"/><path class="cls-2" d="M304.54,423.25h50.18a50.84,50.84,0,0,0,46-29.41,106.64,106.64,0,0,1,10.79-18.31,98.17,98.17,0,0,1,49.24-33.73,93.26,93.26,0,0,1,28.54-3.28l.07-.45a144.78,144.78,0,0,0-46.83-7.91C381.05,330.05,328,368.39,304.54,423.25Z"/><path class="cls-1" d="M210.77,664.14v-.43a35.68,35.68,0,0,0,15.52-12.4,31.28,31.28,0,0,0,6.05-18.54Q232.41,592.11,177,592c-9.56,0-21.68-.17-36.68,1.82L140,738.18c6.6,1.14,30.62,2.38,36.24,2.39q61.13.12,61.21-41.82a35.86,35.86,0,0,0-7-22.24Q223.42,667.11,210.77,664.14Zm-44.16-48.36q3.16-.42,6-.73a48.41,48.41,0,0,1,5.59-.3q12.43,0,18.75,3,8.41,4.44,8.4,15.82,0,19.4-26,19.34l-12.85,0Zm11.6,101.61a51.39,51.39,0,0,1-5.7-.33q-2.94-.31-6.11-.75l.09-40.67,13.49,0q30.35.06,30.31,21.14Q210.25,717.47,178.21,717.39Z"/><path class="cls-1" d="M307.16,631q-23.82,0-38.39,15.52t-14.62,39.39q-.06,23.8,14.25,39.23,14.93,15.63,38.53,15.67,23.82,0,38.39-15.3T360,686.16q0-23.82-14.46-39.45T307.16,631Zm19.23,77.82q-6.76,10.53-19.41,10.49t-19.37-10.57q-5.46-8.65-5.43-22.57,0-13.69,5.52-22.75,6.76-10.53,19.42-10.5t19.36,10.79q5.46,9.07,5.44,22.57Q331.89,700.22,326.39,708.85Z"/><path class="cls-1" d="M473.49,716.11l.17-82.41-25.29-.05-.16,76.5c0,.43,0,1,.1,1.69s.17,1.61.31,2.74q-12,4.6-21.3,4.59-20.86,0-20.82-19.43l.14-66.18-25.29,0-.15,70.18q-.07,37.3,45.87,37.4,18.75,0,47.86-10.23c-.56-3.37-.93-6.28-1.14-8.75S473.48,717.65,473.49,716.11Z"/><path class="cls-1" d="M551,631.54a49.66,49.66,0,0,0-23.62,5.64l.11-45.56-25.29,0-.28,130.29c0,1.41-.12,3.16-.33,5.27s-.47,4.56-.75,7.37a116.69,116.69,0,0,0,40.24,6.83q24.43,0,41.13-15.3,16.89-15.56,16.94-39.38t-11.93-38.8Q574.19,631.59,551,631.54Zm12.9,78q-8,10.11-21.72,10.07A44,44,0,0,1,527,717.27a9.73,9.73,0,0,0,.21-1.89v-1.27l.12-55.64q6.54-5,17.29-5,13.27,0,20.21,9.95,6.1,9.08,6.07,22.56Q570.89,700.49,563.91,709.55Z"/><path class="cls-1" d="M818.82,666.45q0-17.49-11.12-26.36-10.51-8-28.22-8.07a97.66,97.66,0,0,0-41.54,9l8.6,19.2a74,74,0,0,1,29.31-6.26q17.7,0,17.68,9.73,0,6.95-16.87,10.72-25.11,5.42-31.64,8.78-16.87,8.61-16.92,26.73,0,16.88,16,25.33,12.42,6.56,31.18,6.6,17.7,0,44.91-7.92a83.75,83.75,0,0,1-1.45-13.28ZM775.5,721q-19.61,0-19.57-12.9,0-6.74,7.81-10.1,3.59-1.66,16.24-4.39,10.13-2.09,13.5-5.45L793.43,714a14.62,14.62,0,0,0,.1,1.58c.07.64.17,1.45.31,2.43A61.77,61.77,0,0,1,775.5,721Z"/><path class="cls-1" d="M894.13,632.26q-18.14,0-47.86,10.43.83,5.07,1.14,8.75t.3,6l-.17,82.41,25.29,0,.16-76.5c0-.57,0-1.2-.1-1.9s-.18-1.55-.31-2.53q12-4.62,21.29-4.6,20.86,0,20.83,19.44L914.56,740l25.3,0,.14-70.18Q940.08,632.36,894.13,632.26Z"/><path class="cls-1" d="M667.18,714.19l-30-80.15L608.75,634,648,728.06q4.62,11,11.78,12.46-7.15,18.09-21.81,26.25l13.4,18.6q18.76-10.3,29.26-39.75l40.28-111.41-26.76-.05Z"/></svg>