<svg width="40" height="40" viewBox="0 0 40 40" fill="none" xmlns="http://www.w3.org/2000/svg">
<path fill-rule="evenodd" clip-rule="evenodd" d="M11.9753 36.1118C14.4682 37.3534 17.2153 37.9995 20.0003 37.9995C24.7715 37.991 29.3449 36.0919 32.7187 32.7181C36.0924 29.3443 37.9915 24.771 38 19.9997C37.9991 18.4838 37.811 16.9737 37.44 15.5038C37.4011 15.3504 37.3324 15.2062 37.2378 15.0794C37.1432 14.9525 37.0246 14.8456 36.8886 14.7646C36.7527 14.6836 36.6021 14.6302 36.4455 14.6074C36.2889 14.5847 36.1294 14.5929 35.976 14.6318C35.8226 14.6707 35.6784 14.7394 35.5516 14.834C35.4248 14.9286 35.3178 15.0473 35.2368 15.1832C35.1559 15.3192 35.1025 15.4697 35.0797 15.6263C35.0569 15.7829 35.0652 15.9424 35.104 16.0958C35.438 17.3701 35.6048 18.6824 35.6 19.9997C35.5983 23.4546 34.4497 26.8111 32.3345 29.5428C30.2193 32.2744 27.2571 34.2266 23.9126 35.0931C20.5682 35.9596 17.0307 35.6913 13.8552 34.3303C10.6797 32.9694 8.04579 30.5928 6.36673 27.5734C4.68766 24.554 4.05843 21.0626 4.57775 17.647C5.09707 14.2314 6.73556 11.0848 9.23616 8.7009C11.7368 6.31698 14.958 4.83062 18.3945 4.47499C21.831 4.11937 25.2884 4.9146 28.2241 6.73593C28.3574 6.83364 28.5095 6.90276 28.6707 6.93896C28.832 6.97517 28.999 6.97767 29.1613 6.94631C29.3235 6.91496 29.4776 6.85042 29.6137 6.75675C29.7499 6.66307 29.8652 6.54228 29.9525 6.40195C30.0398 6.26162 30.0972 6.10476 30.121 5.94122C30.1449 5.77768 30.1347 5.61098 30.0911 5.45156C30.0475 5.29215 29.9714 5.14346 29.8677 5.01481C29.7639 4.88616 29.6347 4.78034 29.4881 4.70396C27.1215 3.23587 24.4465 2.33698 21.6735 2.078C18.9006 1.81902 16.1054 2.20702 13.5079 3.21147C10.9103 4.21592 8.58125 5.80943 6.70396 7.86661C4.82666 9.92379 3.45234 12.3885 2.68911 15.0669C1.92588 17.7453 1.79457 20.5642 2.30551 23.302C2.81645 26.0397 3.95569 28.6215 5.63362 30.8443C7.31154 33.0671 9.48237 34.8702 11.9753 36.1118ZM19.153 26.7991C19.3778 27.0242 19.6829 27.1508 20.001 27.1511H20.129C20.4585 27.1371 20.7692 26.9933 20.993 26.7511L35.3928 10.5913C35.5149 10.478 35.6121 10.3404 35.6781 10.1875C35.7441 10.0345 35.7776 9.86949 35.7764 9.70288C35.7751 9.53628 35.7392 9.37176 35.6709 9.2198C35.6026 9.06784 35.5034 8.93177 35.3796 8.82026C35.2558 8.70874 35.1102 8.62423 34.9519 8.57209C34.7937 8.51995 34.6263 8.50133 34.4605 8.51743C34.2947 8.53352 34.134 8.58397 33.9888 8.66556C33.8435 8.74715 33.7168 8.85809 33.6168 8.99133L20.001 24.2071L14.0491 18.3032C13.9392 18.1853 13.8068 18.0907 13.6596 18.0251C13.5124 17.9596 13.3535 17.9243 13.1923 17.9214C13.0312 17.9186 12.8712 17.9482 12.7218 18.0086C12.5723 18.069 12.4366 18.1588 12.3227 18.2727C12.2087 18.3867 12.1189 18.5224 12.0585 18.6718C11.9982 18.8212 11.9685 18.9813 11.9714 19.1424C11.9742 19.3035 12.0095 19.4624 12.0751 19.6096C12.1407 19.7568 12.2352 19.8893 12.3531 19.9992L19.153 26.7991Z" fill="#B6DDB9"/>
</svg>
