<svg width="48" height="34" viewBox="0 0 48 34" fill="none" xmlns="http://www.w3.org/2000/svg">
<g clip-path="url(#clip0)">
<path d="M0 27.2681C0.467812 27.488 1.0728 27.5988 1.79563 27.5988C5.39743 27.5988 8.24651 25.3002 10.2637 20.768L12.5694 15.1754H16.2169L17.0241 13.5996H13.1339L13.2816 13.2461C14.6007 10.0769 16.3031 8.46948 18.3379 8.46948C18.7723 8.46948 19.328 8.60842 19.9893 8.88102L21.194 7.05022C20.6998 6.82862 19.8838 6.6123 19.1047 6.6123C15.5011 6.6123 12.652 8.91092 10.6331 13.4466L10.5662 13.5978H3.90957L3.09882 15.1771L9.91727 15.1736L9.02913 17.2665H1.14139L0.332393 18.8317H8.46459L7.58173 20.965C6.26095 24.1359 4.5726 25.7434 2.56417 25.7434C2.13329 25.7434 1.60041 25.6115 0.940901 25.3406L0 27.2681Z" fill="#B6DDB9"/>
<path d="M40.7313 15.7963C40.151 15.2353 39.509 14.9556 38.8073 14.9556C38.3395 14.9556 37.9297 15.0752 37.578 15.3162C37.2245 15.5553 37.0363 15.8719 37.0152 16.2641C36.9976 16.5508 37.082 16.797 37.2632 17.001C37.4461 17.2085 37.7662 17.4371 38.2234 17.6922L39.495 18.4009C39.8872 18.619 40.1738 18.9004 40.355 19.2416C40.5361 19.5828 40.6135 19.9574 40.5906 20.3619C40.5308 21.4329 40.0947 22.2788 39.2839 22.9014C38.4749 23.5257 37.4672 23.837 36.2713 23.837C35.2178 23.837 34.2875 23.5732 33.482 23.0509L34.5038 21.3678C34.7324 21.6105 35.0683 21.8339 35.5133 22.0361C35.9582 22.2401 36.3416 22.3421 36.667 22.3421C37.2227 22.3421 37.6905 22.1909 38.0669 21.8919C38.445 21.5929 38.649 21.1902 38.6789 20.6784C38.693 20.4164 38.6121 20.1842 38.4327 19.9785C38.2533 19.7727 37.9385 19.537 37.4865 19.2697L36.208 18.5416C35.8158 18.3112 35.5274 18.0193 35.3444 17.6675C35.1615 17.3176 35.0806 16.9412 35.1035 16.542C35.1563 15.6134 35.5573 14.8677 36.3135 14.3067C37.0662 13.7421 37.9719 13.459 39.0219 13.459C39.75 13.459 40.6153 13.6911 41.6177 14.1519L40.7313 15.7963Z" fill="#B6DDB9"/>
<path d="M32.8946 15.4764C32.4637 15.1299 31.871 14.9576 31.1148 14.9576C29.9646 14.9576 29.0114 15.4113 28.2516 16.3171C27.4901 17.2245 27.0733 18.3378 26.9994 19.6586C26.9519 20.4693 27.1454 21.1148 27.578 21.5984C28.0107 22.082 28.5207 22.3212 29.1063 22.3212C30.0121 22.3212 30.8967 22.0416 31.7567 21.4841L31.4542 23.2991C30.6188 23.6596 29.7148 23.839 28.7423 23.839C27.5077 23.839 26.5791 23.4855 25.9583 22.7785C25.3375 22.0715 25.0596 21.1323 25.1264 19.9628C25.2337 18.0564 25.844 16.4982 26.9607 15.2829C28.0775 14.0694 29.444 13.4609 31.0655 13.4609C32.024 13.4609 32.7697 13.6298 33.2991 13.9604L32.8946 15.4764Z" fill="#B6DDB9"/>
<path d="M23.3642 15.7963C22.7856 15.2353 22.1437 14.9556 21.4402 14.9556C20.9724 14.9556 20.5626 15.0752 20.2091 15.3162C19.8556 15.5553 19.6692 15.8719 19.6463 16.2641C19.6305 16.5508 19.7132 16.797 19.8961 17.001C20.0772 17.2085 20.399 17.4371 20.8581 17.6922L22.1278 18.4009C22.52 18.619 22.8085 18.9004 22.9878 19.2416C23.169 19.5828 23.2481 19.9574 23.2235 20.3619C23.1637 21.4329 22.7276 22.2788 21.9168 22.9014C21.106 23.5257 20.1018 23.837 18.9042 23.837C17.8507 23.837 16.9203 23.5732 16.1149 23.0509L17.1367 21.3678C17.3653 21.6105 17.703 21.8339 18.1462 22.0361C18.5911 22.2401 18.9763 22.3421 19.3016 22.3421C19.8556 22.3421 20.3234 22.1909 20.7033 21.8919C21.0832 21.5929 21.2854 21.1902 21.3153 20.6784C21.3294 20.4164 21.2467 20.1842 21.0691 19.9785C20.8915 19.7727 20.5749 19.537 20.1229 19.2697L18.8444 18.5416C18.4504 18.3112 18.1637 18.0193 17.9808 17.6675C17.7979 17.3176 17.717 16.9412 17.7399 16.542C17.7927 15.6134 18.1954 14.8677 18.9499 14.3067C19.7044 13.7421 20.6083 13.459 21.66 13.459C22.3881 13.459 23.2516 13.6911 24.2559 14.1519L23.3642 15.7963Z" fill="#B6DDB9"/>
<path d="M26.4736 0C25.8018 0 25.1299 0.0140695 24.4564 0.045726C22.5077 0.138937 20.5556 0.330634 18.6245 0.703477C16.6935 1.0728 14.7712 1.58282 12.9193 2.37072C11.9943 2.76466 11.085 3.22368 10.2268 3.80405C9.79766 4.09424 9.38085 4.41256 8.99042 4.77309C8.59999 5.13187 8.23067 5.53285 7.91586 5.98835C7.60105 6.44209 7.34077 6.95563 7.18073 7.50962C7.01893 8.06185 6.96792 8.65453 7.03475 9.21907C7.09631 9.78537 7.26338 10.32 7.49026 10.8089C7.51488 10.8617 7.54302 10.9127 7.5694 10.9637C7.61161 11.0182 7.67844 11.0534 7.7523 11.0534C7.88069 11.0534 7.98445 10.9531 7.98445 10.83C7.98445 10.7984 7.97741 10.7702 7.96686 10.7421L7.96862 10.7439C7.94752 10.6929 7.92289 10.6418 7.90355 10.5891C7.72592 10.1266 7.60457 9.64115 7.57819 9.15048C7.55181 8.66156 7.61864 8.17616 7.77341 7.72066C7.92817 7.26516 8.16911 6.84131 8.46105 6.45968C9.04846 5.69465 9.81701 5.08438 10.633 4.57964C11.4543 4.07665 12.3284 3.66336 13.2236 3.31514C14.1188 2.96516 15.0386 2.68552 15.9654 2.44107C16.8922 2.19661 17.8314 1.99963 18.774 1.83783C20.6629 1.52303 22.5675 1.32254 24.4757 1.25395C26.3821 1.19063 28.3026 1.20119 30.209 1.2856C31.164 1.32605 32.1155 1.40168 33.0634 1.49665C34.0113 1.59162 34.9575 1.72 35.8949 1.88884C37.7697 2.22299 39.6251 2.72246 41.3662 3.5297C42.2332 3.93947 43.0704 4.42487 43.8407 5.01579C44.2241 5.31301 44.5916 5.63661 44.9346 5.98835C45.2775 6.34185 45.5941 6.72172 45.8808 7.12798C46.4541 7.94226 46.899 8.86557 47.1769 9.8522C47.4583 10.8353 47.5744 11.8817 47.5691 12.9176C47.5462 15.0016 47.0134 17.0628 46.1815 18.9358C45.7629 19.8732 45.274 20.7719 44.7271 21.6214C44.1766 22.4691 43.5716 23.271 42.9226 24.022C42.2737 24.7729 41.5808 25.4729 40.8509 26.1131C40.4869 26.4349 40.1158 26.7444 39.7341 27.0364C39.356 27.3318 38.9673 27.6115 38.5716 27.8735C36.9941 28.9287 35.3057 29.743 33.5576 30.2337L33.234 30.3216C33.1408 30.3462 32.9895 30.3832 32.9016 30.4025C32.6853 30.4518 32.469 30.4957 32.2509 30.5309C31.8165 30.6065 31.3768 30.6575 30.9371 30.6786C30.4957 30.698 30.0543 30.7015 29.6111 30.6751C29.1679 30.647 28.7247 30.596 28.2833 30.5274C26.514 30.239 24.7659 29.597 23.0811 28.7406C21.4103 27.8841 19.7941 26.8359 18.2306 25.6242L18.2148 25.6083L18.213 25.6101C18.2042 25.603 18.1972 25.5978 18.1884 25.5925C18.1901 25.5943 18.1901 25.596 18.1919 25.5978C18.162 25.5732 18.1233 25.5573 18.0811 25.5573C17.9844 25.5573 17.9052 25.6329 17.9052 25.7262C17.9052 25.7666 17.9211 25.8018 17.9457 25.8317L17.9404 25.837C19.219 27.4954 20.9953 29.1486 23.1514 30.6206L23.1409 30.61C24.5777 31.5756 26.1658 32.3283 27.87 32.7381C28.3712 32.8629 28.883 32.9509 29.4018 33.0071C29.9189 33.0634 30.4412 33.0933 30.9653 33.0757C31.4894 33.0617 32.0152 33.0159 32.5358 32.935C32.7961 32.8911 33.0564 32.8401 33.3131 32.7803C33.4609 32.7451 33.547 32.7258 33.6895 32.6871L34.0711 32.5833C36.0796 32.0012 37.9649 30.9864 39.6374 29.685C41.3134 28.3835 42.7696 26.7866 43.999 25.028C44.6127 24.1469 45.1667 23.22 45.6556 22.2598C46.1463 21.2995 46.5772 20.3059 46.9254 19.2805C47.5779 17.3759 47.9894 15.3639 47.9947 13.3485V13.2729C47.9947 13.1515 47.993 13.0302 47.9894 12.9088C47.9648 11.829 47.81 10.7579 47.5076 9.73261C47.2015 8.7108 46.7408 7.75056 46.1481 6.90111C45.5572 6.0499 44.8466 5.30773 44.0676 4.67285C43.292 4.03268 42.4478 3.49276 41.572 3.0355C39.8203 2.11219 37.9491 1.48785 36.0532 1.02884C35.1035 0.801964 34.145 0.620819 33.183 0.473088C32.221 0.327117 31.252 0.226871 30.2829 0.145971C29.3139 0.0650716 28.3413 0.0263804 27.3705 0.00879346C27.1138 0.00175869 26.8517 0 26.5914 0H26.4736Z" fill="#B6DDB9"/>
</g>
<defs>
<clipPath id="clip0">
<rect width="48" height="33.0793" fill="white"/>
</clipPath>
</defs>
</svg>
