<svg width="49" height="49" viewBox="0 0 49 49" fill="none" xmlns="http://www.w3.org/2000/svg">
<path fill-rule="evenodd" clip-rule="evenodd" d="M46.5 20.6041C46.5027 20.4001 46.4648 20.1977 46.3886 20.0086C46.3124 19.8194 46.1994 19.6473 46.0561 19.5022C45.9128 19.357 45.7422 19.2418 45.554 19.1632C45.3659 19.0845 45.164 19.044 44.96 19.0441H5.56003V15.4041C5.56002 14.458 5.93445 13.5505 6.60151 12.8797C7.26857 12.2089 8.17403 11.8293 9.12003 11.8241H39.88C40.6013 11.826 41.3049 12.047 41.8978 12.4577C42.4906 12.8684 42.9448 13.4495 43.2 14.1241C43.2566 14.3318 43.3562 14.5254 43.4923 14.6924C43.6284 14.8593 43.7979 14.9958 43.9901 15.0931C44.1822 15.1904 44.3926 15.2463 44.6076 15.2573C44.8227 15.2682 45.0377 15.2339 45.2387 15.1566C45.4397 15.0793 45.6223 14.9607 45.7746 14.8084C45.9269 14.6562 46.0456 14.4737 46.123 14.2727C46.2004 14.0718 46.2348 13.8568 46.2239 13.6417C46.2131 13.4266 46.1572 13.2162 46.06 13.0241C45.5839 11.7676 44.7389 10.6845 43.6359 9.91702C42.533 9.14959 41.2237 8.73373 39.88 8.72406H9.12003C7.35716 8.73464 5.6704 9.44373 4.42947 10.6959C3.18855 11.9481 2.4947 13.6412 2.50003 15.4041V34.0441C2.4947 35.807 3.18855 37.5 4.42947 38.7522C5.6704 40.0044 7.35716 40.7135 9.12003 40.7241H39.88C41.6429 40.7135 43.3297 40.0044 44.5706 38.7522C45.8115 37.5 46.5054 35.807 46.5 34.0441V20.8841V20.7241V20.6041ZM39.88 37.6241H9.12003C8.17403 37.6188 7.26857 37.2393 6.60151 36.5685C5.93445 35.8976 5.56002 34.9901 5.56003 34.0441V22.1441H43.42V34.0441C43.4227 34.5116 43.3332 34.975 43.1567 35.4079C42.9802 35.8409 42.7202 36.2348 42.3915 36.5672C42.0628 36.8997 41.6718 37.1641 41.2409 37.3454C40.81 37.5268 40.3475 37.6214 39.88 37.6241ZM24.9599 28.4841H9.5399C9.15915 28.5274 8.80767 28.7093 8.55248 28.9952C8.29729 29.2811 8.15625 29.6509 8.15625 30.0341C8.15625 30.4173 8.29729 30.7871 8.55248 31.0729C8.80767 31.3588 9.15915 31.5408 9.5399 31.5841H24.9599C25.3406 31.5408 25.6921 31.3588 25.9473 31.0729C26.2025 30.7871 26.3435 30.4173 26.3435 30.0341C26.3435 29.6509 26.2025 29.2811 25.9473 28.9952C25.6921 28.7093 25.3406 28.5274 24.9599 28.4841ZM31.2999 28.4841H39.4599C39.8407 28.5274 40.1921 28.7093 40.4473 28.9952C40.7025 29.2811 40.8436 29.6509 40.8436 30.0341C40.8436 30.4173 40.7025 30.7871 40.4473 31.0729C40.1921 31.3588 39.8407 31.5408 39.4599 31.5841H31.2999C30.9192 31.5408 30.5677 31.3588 30.3125 31.0729C30.0573 30.7871 29.9163 30.4173 29.9163 30.0341C29.9163 29.6509 30.0573 29.2811 30.3125 28.9952C30.5677 28.7093 30.9192 28.5274 31.2999 28.4841Z" fill="white"/>
</svg>
