<svg width="48" height="48" viewBox="0 0 48 48" fill="none" xmlns="http://www.w3.org/2000/svg">
<path d="M46 19.88C46.0027 19.6761 45.9648 19.4737 45.8886 19.2845C45.8124 19.0954 45.6994 18.9232 45.5561 18.7781C45.4128 18.633 45.2422 18.5177 45.054 18.4391C44.8659 18.3605 44.664 18.32 44.46 18.32H5.06003V14.68C5.06002 13.734 5.43445 12.8264 6.10151 12.1556C6.76857 11.4848 7.67403 11.1053 8.62003 11.1H39.38C40.1013 11.1019 40.8049 11.3229 41.3978 11.7336C41.9906 12.1443 42.4448 12.7254 42.7 13.4C42.7566 13.6078 42.8562 13.8014 42.9923 13.9683C43.1284 14.1352 43.2979 14.2717 43.4901 14.369C43.6822 14.4663 43.8926 14.5223 44.1076 14.5332C44.3227 14.5441 44.5377 14.5099 44.7387 14.4325C44.9397 14.3552 45.1223 14.2366 45.2746 14.0844C45.4269 13.9321 45.5456 13.7496 45.623 13.5487C45.7004 13.3477 45.7348 13.1327 45.7239 12.9177C45.7131 12.7026 45.6572 12.4922 45.56 12.3C45.0839 11.0435 44.2389 9.96039 43.1359 9.19296C42.033 8.42553 40.7237 8.00967 39.38 8H8.62003C6.85716 8.01058 5.1704 8.71967 3.92947 9.97184C2.68855 11.224 1.9947 12.9171 2.00003 14.68V33.32C1.9947 35.0829 2.68855 36.776 3.92947 38.0282C5.1704 39.2803 6.85716 39.9894 8.62003 40H39.38C41.1429 39.9894 42.8297 39.2803 44.0706 38.0282C45.3115 36.776 46.0054 35.0829 46 33.32V20.16V20C46 20 46 20 46 19.88ZM39.38 36.9H8.62003C7.67403 36.8947 6.76857 36.5152 6.10151 35.8444C5.43445 35.1736 5.06002 34.266 5.06003 33.32V21.42H42.92V33.32C42.9227 33.7875 42.8332 34.251 42.6567 34.6839C42.4802 35.1168 42.2202 35.5107 41.8915 35.8432C41.5628 36.1756 41.1718 36.44 40.7409 36.6214C40.31 36.8027 39.8475 36.8974 39.38 36.9Z" fill="#B6DDB9"/>
<path d="M24.46 27.76H9.04002C8.65928 27.8033 8.30779 27.9853 8.0526 28.2711C7.79742 28.557 7.65637 28.9268 7.65637 29.31C7.65637 29.6932 7.79742 30.063 8.0526 30.3489C8.30779 30.6347 8.65928 30.8167 9.04002 30.86H24.46C24.8408 30.8167 25.1922 30.6347 25.4474 30.3489C25.7026 30.063 25.8437 29.6932 25.8437 29.31C25.8437 28.9268 25.7026 28.557 25.4474 28.2711C25.1922 27.9853 24.8408 27.8033 24.46 27.76Z" fill="#B6DDB9"/>
<path d="M38.96 27.76H30.8C30.4193 27.8033 30.0678 27.9853 29.8126 28.2711C29.5574 28.557 29.4164 28.9268 29.4164 29.31C29.4164 29.6932 29.5574 30.063 29.8126 30.3489C30.0678 30.6347 30.4193 30.8167 30.8 30.86H38.96C39.3408 30.8167 39.6923 30.6347 39.9474 30.3489C40.2026 30.063 40.3437 29.6932 40.3437 29.31C40.3437 28.9268 40.2026 28.557 39.9474 28.2711C39.6923 27.9853 39.3408 27.8033 38.96 27.76Z" fill="#B6DDB9"/>
</svg>
