<svg width="44" height="24" viewBox="0 0 44 24" fill="none" xmlns="http://www.w3.org/2000/svg">
<path d="M39.2405 4.23164L42.0529 1.63044H38.222H31.0256C30.9353 1.63044 30.8761 1.59722 30.8475 1.57079C30.8454 1.56882 30.8435 1.56695 30.8418 1.56521C30.8435 1.56348 30.8454 1.56162 30.8475 1.55965C30.8761 1.53322 30.9353 1.5 31.0256 1.5H42.3077C42.398 1.5 42.4572 1.53322 42.4858 1.55965C42.493 1.56631 42.4975 1.57173 42.5 1.57528V11.99C42.4975 11.9935 42.493 11.9989 42.4858 12.0056C42.4572 12.032 42.398 12.0652 42.3077 12.0652C42.2174 12.0652 42.1582 12.032 42.1296 12.0056C42.1224 11.9989 42.1179 11.9935 42.1154 11.99V5.344V1.91345L39.5969 4.24279L26.03 16.7907L26.8798 17.7096L26.03 16.7907C25.0629 17.6852 23.45 17.6852 22.4828 16.7907L21.4643 17.8919L22.4828 16.7907L16.6482 11.3943L16.648 11.3941C15.8528 10.6589 14.6087 10.6589 13.8136 11.3941L13.8134 11.3943L1.87044 22.4403L1.87042 22.4404C1.83944 22.469 1.77925 22.5 1.6923 22.5C1.60536 22.5 1.54516 22.469 1.51418 22.4404C1.51203 22.4384 1.51015 22.4365 1.5085 22.4348C1.51015 22.4331 1.51203 22.4313 1.51418 22.4293L13.4571 11.3833C13.4571 11.3833 13.4571 11.3832 13.4571 11.3832C14.4243 10.4887 16.0373 10.4888 17.0043 11.3832L17.0043 11.3832L22.839 16.7797L22.8395 16.7802C23.6347 17.5149 24.8781 17.5149 25.6733 16.7802L25.6739 16.7797L39.2405 4.23164Z" fill="#B6DDB9" stroke="#B6DDB9" stroke-width="3"/>
</svg>
