<svg width="48" height="48" viewBox="0 0 48 48" fill="none" xmlns="http://www.w3.org/2000/svg">
<path d="M35.8401 46.12H12.1601C10.4096 46.12 8.73089 45.4247 7.49315 44.1869C6.25541 42.9492 5.56006 41.2705 5.56006 39.52V21.2C5.56006 19.4496 6.25541 17.7709 7.49315 16.5331C8.73089 15.2954 10.4096 14.6 12.1601 14.6H14.5001C14.4893 14.507 14.4893 14.413 14.5001 14.32V11.66C14.5001 9.13515 15.5031 6.7137 17.2884 4.92836C19.0737 3.14301 21.4952 2.14001 24.0201 2.14001C26.5449 2.14001 28.9664 3.14301 30.7517 4.92836C32.5371 6.7137 33.5401 9.13515 33.5401 11.66V14.6H35.8601C37.6105 14.6 39.2892 15.2954 40.527 16.5331C41.7647 17.7709 42.4601 19.4496 42.4601 21.2V39.52C42.4601 40.3884 42.2887 41.2483 41.9558 42.0504C41.6228 42.8524 41.1349 43.5809 40.5199 44.194C39.9049 44.8071 39.175 45.2929 38.3719 45.6234C37.5689 45.9539 36.7085 46.1227 35.8401 46.12ZM12.1601 17.62C11.2106 17.62 10.3 17.9972 9.62862 18.6686C8.95724 19.34 8.58006 20.2505 8.58006 21.2V39.52C8.58006 40.4695 8.95724 41.3801 9.62862 42.0515C10.3 42.7228 11.2106 43.1 12.1601 43.1H35.8401C36.7895 43.1 37.7001 42.7228 38.3715 42.0515C39.0429 41.3801 39.4201 40.4695 39.4201 39.52V21.2C39.4201 20.2505 39.0429 19.34 38.3715 18.6686C37.7001 17.9972 36.7895 17.62 35.8401 17.62H32.0001C31.8014 17.62 31.6047 17.5806 31.4214 17.504C31.2381 17.4273 31.0718 17.315 30.9323 17.1736C30.7927 17.0322 30.6826 16.8645 30.6084 16.6802C30.5343 16.4959 30.4974 16.2987 30.5001 16.1V11.66C30.5491 10.7748 30.4172 9.88879 30.1122 9.05628C29.8072 8.22376 29.3356 7.4622 28.7263 6.81815C28.117 6.17409 27.3827 5.66108 26.5683 5.31048C25.754 4.95987 24.8767 4.77904 23.9901 4.77904C23.1034 4.77904 22.2261 4.95987 21.4118 5.31048C20.5974 5.66108 19.8632 6.17409 19.2538 6.81815C18.6445 7.4622 18.1729 8.22376 17.8679 9.05628C17.563 9.88879 17.431 10.7748 17.4801 11.66V14.32C17.4912 14.413 17.4912 14.507 17.4801 14.6H24.9201C25.2906 14.6427 25.6325 14.8202 25.8807 15.0986C26.1288 15.3771 26.266 15.737 26.266 16.11C26.266 16.483 26.1288 16.843 25.8807 17.1214C25.6325 17.3998 25.2906 17.5773 24.9201 17.62H12.1601Z" fill="#B6DDB9"/>
<path d="M23.9998 38.56C22.378 38.56 20.7926 38.0791 19.4441 37.1781C18.0956 36.2771 17.0446 34.9964 16.424 33.498C15.8034 31.9997 15.641 30.3509 15.9574 28.7603C16.2738 27.1697 17.0547 25.7086 18.2015 24.5618C19.3483 23.415 20.8094 22.634 22.4001 22.3176C23.9907 22.0012 25.6395 22.1636 27.1378 22.7842C28.6362 23.4049 29.9168 24.4559 30.8179 25.8044C31.7189 27.1528 32.1998 28.7382 32.1998 30.36C32.1945 32.5332 31.3289 34.6158 29.7923 36.1525C28.2556 37.6891 26.173 38.5548 23.9998 38.56ZM23.9998 25.18C22.9753 25.18 21.9738 25.4838 21.122 26.053C20.2701 26.6222 19.6062 27.4312 19.2141 28.3777C18.8221 29.3243 18.7195 30.3658 18.9193 31.3706C19.1192 32.3754 19.6126 33.2984 20.337 34.0229C21.0614 34.7473 21.9844 35.2406 22.9892 35.4405C23.9941 35.6404 25.0356 35.5378 25.9821 35.1457C26.9286 34.7537 27.7376 34.0897 28.3068 33.2379C28.876 32.386 29.1798 31.3845 29.1798 30.36C29.1745 28.9878 28.6271 27.6733 27.6568 26.703C26.6865 25.7327 25.372 25.1853 23.9998 25.18Z" fill="#B6DDB9"/>
</svg>
