<svg width="140" height="26" viewBox="0 0 140 26" fill="none" xmlns="http://www.w3.org/2000/svg">
<path d="M127.648 0C120.839 0 115.295 5.75569 115.295 12.8335C115.295 19.9113 120.835 25.667 127.648 25.667C134.46 25.667 140 19.9076 140 12.8335C140 5.75931 134.46 0 127.648 0ZM127.648 17.1113C125.378 17.1113 123.53 15.1915 123.53 12.8335C123.53 10.4754 125.378 8.55565 127.648 8.55565C129.917 8.55565 131.765 10.4754 131.765 12.8335C131.769 15.1952 129.921 17.1113 127.648 17.1113ZM12.3523 0C5.53989 0 0 5.75569 0 12.8335V25.667H8.23488V12.8335C8.23488 10.4754 10.0827 8.55565 12.3523 8.55565C14.622 8.55565 16.4698 10.4754 16.4698 12.8335V25.667H24.7047V12.8335C24.7047 5.75569 19.1648 0 12.3523 0ZM94.7081 0C91.5425 0 88.6592 1.25328 86.4733 3.29621C84.2838 1.25328 81.4005 0 78.2349 0C71.4225 0 65.8826 5.75569 65.8826 12.8335V25.667H74.1174V12.8335C74.1174 10.4754 75.9652 8.55565 78.2349 8.55565C80.5045 8.55565 82.3523 10.4754 82.3523 12.8335V25.667H90.5872V12.8335C90.5872 10.4754 92.435 8.55565 94.7047 8.55565C96.9743 8.55565 98.8221 10.4754 98.8221 12.8335V25.667H107.057V12.8335C107.06 5.75569 101.517 0 94.7081 0ZM45.2953 0C38.4829 0 32.943 5.75569 32.943 12.8335C32.943 19.9113 38.4829 25.667 45.2953 25.667C52.1078 25.667 57.6477 19.9076 57.6477 12.8335C57.6477 5.75931 52.1078 0 45.2953 0ZM45.2953 17.1113C43.0257 17.1113 41.1779 15.1915 41.1779 12.8335C41.1779 10.4754 43.0257 8.55565 45.2953 8.55565C47.565 8.55565 49.4128 10.4754 49.4128 12.8335C49.4128 15.1952 47.565 17.1113 45.2953 17.1113Z" fill="#B6DDB9"/>
</svg>
