<svg width="36" height="35" viewBox="0 0 36 35" fill="none" xmlns="http://www.w3.org/2000/svg">
<path d="M32.7088 18.4783C32.2931 18.3673 31.8614 18.5843 31.6957 18.9868C29.8777 23.3934 25.6644 26.2409 20.9615 26.2409C14.5469 26.2409 9.3282 20.9387 9.3282 14.4216C9.3282 8.6008 13.5952 3.57399 19.2537 2.72882C19.679 2.66526 19.9931 2.29291 19.99 1.85613C19.9867 1.41926 19.6671 1.05168 19.2408 0.994632C18.5309 0.899634 17.8052 0.85144 17.0838 0.85144C8.05565 0.85144 0.710938 8.31355 0.710938 17.4859C0.710938 26.6581 8.05565 34.1203 17.0837 34.1203C25.3964 34.1203 32.3878 27.8033 33.3463 19.4262C33.3958 18.993 33.124 18.5888 32.7088 18.4783ZM17.0837 32.3694C9.00607 32.3694 2.43434 25.6926 2.43434 17.4859C2.43434 10.4262 7.29754 4.49861 13.7988 2.97969C10.0598 5.41741 7.60471 9.69127 7.60471 14.4216C7.60471 21.9042 13.5965 27.9919 20.9614 27.9919C24.4364 27.9919 27.6785 26.6378 30.1045 24.3238C27.655 29.139 22.7075 32.3694 17.0837 32.3694Z" fill="#B6DDB9"/>
<path d="M33.4267 18.4291C33.0017 18.3178 32.5603 18.5355 32.3909 18.9392C30.5321 23.3596 26.2242 26.2161 21.4159 26.2161C14.8573 26.2161 9.52154 20.8973 9.52154 14.3597C9.52154 8.52055 13.8842 3.47793 19.6697 2.63011C20.1045 2.56635 20.4258 2.19283 20.4225 1.75467C20.4192 1.31643 20.0924 0.947698 19.6566 0.890468C18.9307 0.795171 18.1887 0.746826 17.4511 0.746826C8.22044 0.746826 0.710938 8.2324 0.710938 17.4336C0.710938 26.6346 8.22044 34.1203 17.451 34.1203C25.9503 34.1203 33.0985 27.7834 34.0785 19.38C34.1292 18.9454 33.8512 18.5399 33.4267 18.4291ZM17.451 32.3639C9.19218 32.3639 2.47301 25.6661 2.47301 17.4336C2.47301 10.3517 7.44532 4.40546 14.0925 2.88177C10.2696 5.32716 7.75939 9.61446 7.75939 14.3597C7.75939 21.8658 13.8856 27.9726 21.4158 27.9726C24.9687 27.9726 28.2836 26.6143 30.764 24.293C28.2596 29.1233 23.201 32.3639 17.451 32.3639Z" fill="#B6DDB9"/>
<path d="M28.7059 7.1199L28.7329 7.63383L29.23 7.76703L33.0531 8.79144L29.358 10.2099L28.8775 10.3943L28.9045 10.9082L29.1116 14.8608L26.6208 11.7848L26.2969 11.3849L25.8164 11.5693L22.1213 12.9878L24.277 9.66829L24.5573 9.23668L24.2334 8.83674L21.7426 5.76079L25.5657 6.7852L26.0628 6.91839L26.3431 6.48678L28.4988 3.16732L28.7059 7.1199Z" stroke="#B6DDB9" stroke-width="1.41667"/>
</svg>
