<svg width="48" height="49" viewBox="0 0 48 49" fill="none" xmlns="http://www.w3.org/2000/svg">
<path d="M45.1396 36.0317L41.1396 30.6317C40.9065 30.3381 40.5719 30.1424 40.2017 30.0832C39.8316 30.024 39.4526 30.1055 39.1396 30.3117C38.9691 30.4204 38.8228 30.5629 38.7095 30.7303C38.5962 30.8977 38.5184 31.0866 38.481 31.2852C38.4435 31.4838 38.4471 31.6881 38.4916 31.8852C38.536 32.0824 38.6205 32.2684 38.7396 32.4317L40.8996 35.3517H10.2796C9.03305 35.3517 7.83759 34.8566 6.95617 33.9751C6.07475 33.0937 5.57957 31.8983 5.57957 30.6517C5.57957 29.4052 6.07475 28.2098 6.95617 27.3283C7.83759 26.4469 9.03305 25.9517 10.2796 25.9517H37.7396C39.7817 25.9517 41.7403 25.1405 43.1843 23.6965C44.6283 22.2524 45.4396 20.2939 45.4396 18.2517C45.4396 16.2096 44.6283 14.251 43.1843 12.807C41.7403 11.363 39.7817 10.5517 37.7396 10.5517H7.01957L9.23957 7.63173C9.45741 7.31472 9.54514 6.92614 9.48464 6.54629C9.42414 6.16644 9.22003 5.82434 8.91448 5.59069C8.60894 5.35704 8.22532 5.2497 7.84288 5.29083C7.46045 5.33197 7.10843 5.51845 6.85957 5.81173L2.85957 11.0317C2.66484 11.2914 2.55957 11.6072 2.55957 11.9317C2.55957 12.2563 2.66484 12.5721 2.85957 12.8317L6.85957 18.2317C6.99302 18.4118 7.16418 18.5606 7.36108 18.6677C7.55798 18.7748 7.77588 18.8376 7.99957 18.8517C8.31776 18.8503 8.62676 18.745 8.87957 18.5517C9.04844 18.4414 9.19298 18.2978 9.30433 18.1296C9.41567 17.9614 9.49146 17.7723 9.52705 17.5737C9.56263 17.3752 9.55726 17.1715 9.51126 16.9751C9.46527 16.7787 9.37962 16.5938 9.25957 16.4317L7.09957 13.5317H37.7396C38.9861 13.5317 40.1815 14.0269 41.063 14.9083C41.9444 15.7898 42.4396 16.9852 42.4396 18.2317C42.4396 19.4783 41.9444 20.6737 41.063 21.5551C40.1815 22.4366 38.9861 22.9317 37.7396 22.9317H10.2796C9.26839 22.9317 8.26711 23.1309 7.33291 23.5179C6.3987 23.9048 5.54986 24.472 4.83485 25.187C4.11984 25.902 3.55266 26.7509 3.1657 27.6851C2.77874 28.6193 2.57957 29.6206 2.57957 30.6317C2.57957 31.6429 2.77874 32.6442 3.1657 33.5784C3.55266 34.5126 4.11984 35.3614 4.83485 36.0765C5.54986 36.7915 6.3987 37.3586 7.33291 37.7456C8.26711 38.1326 9.26839 38.3317 10.2796 38.3317H40.9796L38.7596 41.2317C38.5187 41.5475 38.4129 41.9459 38.4654 42.3396C38.5179 42.7333 38.7244 43.0901 39.0396 43.3317C39.2919 43.5421 39.611 43.6556 39.9396 43.6517C40.1727 43.6533 40.4029 43.5998 40.6115 43.4955C40.82 43.3913 41.0009 43.2392 41.1396 43.0517L45.1396 37.8317C45.3343 37.5721 45.4396 37.2563 45.4396 36.9317C45.4396 36.6072 45.3343 36.2914 45.1396 36.0317Z" fill="#B6DDB9"/>
</svg>
